<svg version="1.1" id="Layer_1" xmlns="http://www.w3.org/2000/svg" xmlns:xlink="http://www.w3.org/1999/xlink" x="0px" y="0px"
	 width="100%" viewBox="0 0 2101 2048" enable-background="new 0 0 2101 2048" xml:space="preserve">
<path fill="#470137" opacity="1.000000" stroke="none" 
	d="
M2.000000,1718.000000 
	C2.000000,1257.943970 2.000000,797.887878 2.711736,336.660034 
	C4.240628,333.076904 5.324140,330.720245 5.832572,328.245483 
	C9.711833,309.363373 12.299875,290.126526 17.504965,271.623230 
	C32.315086,218.975479 57.867844,171.981903 93.849121,130.567749 
	C125.700081,93.907570 163.119080,64.784126 206.301025,42.597721 
	C242.529541,23.983919 280.794312,12.337743 320.839905,5.967098 
	C323.725800,5.507993 327.071503,5.957933 328.000000,2.000000 
	C811.389404,2.000000 1294.778809,2.000000 1779.303711,2.717899 
	C1783.176147,4.335473 1785.850220,5.639987 1788.659180,6.075043 
	C1844.135864,14.667423 1895.158081,34.708569 1941.721680,65.950928 
	C1972.317383,86.479500 1999.183838,111.267159 2022.293701,139.933319 
	C2043.906372,166.742172 2061.618896,195.988510 2075.101807,227.769531 
	C2086.595459,254.862167 2094.767822,282.882141 2099.765869,311.860870 
	C2100.302734,314.973511 2099.629150,318.833008 2104.000000,320.000000 
	C2104.000000,790.722717 2104.000000,1261.445435 2103.280273,1733.276611 
	C2101.591309,1737.102783 2100.251465,1739.748657 2099.708740,1742.549072 
	C2093.609863,1774.030029 2084.894531,1804.651001 2071.247314,1833.804443 
	C2049.975342,1879.246338 2021.372559,1919.157837 1984.297607,1953.174072 
	C1952.275879,1982.553833 1916.124756,2005.128540 1876.383667,2022.271973 
	C1850.262207,2033.540161 1822.949219,2040.698730 1795.053589,2045.854736 
	C1792.228516,2046.376953 1788.779053,2045.948608 1788.000000,2050.000000 
	C1299.277222,2050.000000 810.554504,2050.000000 320.727539,2049.278320 
	C316.906281,2047.587280 314.262146,2046.207886 311.461304,2045.709717 
	C265.380066,2037.515381 222.216965,2021.442139 182.277939,1997.113525 
	C152.610977,1979.041992 125.692871,1957.526245 102.197006,1931.699463 
	C84.648453,1912.410034 68.840431,1891.961426 55.557571,1869.537720 
	C29.073679,1824.828735 12.290075,1776.790894 5.918732,1725.169434 
	C5.560204,1722.264526 5.967761,1718.934814 2.000000,1718.000000 
M1793.827515,1213.000000 
	C1793.827393,965.051697 1793.827881,717.103333 1793.823120,469.154999 
	C1793.823120,465.823395 1793.965332,462.473358 1793.671997,459.164673 
	C1793.263794,454.560303 1790.632568,451.909058 1785.895264,451.697327 
	C1783.566895,451.593292 1781.230347,451.664764 1778.897583,451.664764 
	C1725.908691,451.664490 1672.919434,451.575989 1619.930908,451.715332 
	C1601.894043,451.762756 1598.142212,446.961884 1598.228760,472.819275 
	C1598.510742,557.134033 1598.338501,641.450317 1598.320557,725.766052 
	C1598.319824,729.630432 1598.119873,733.494751 1598.012695,737.352295 
	C1595.113892,737.352295 1593.442139,737.483093 1591.796021,737.333191 
	C1544.716797,733.046631 1497.958496,735.467224 1451.466553,743.871643 
	C1392.525146,754.526367 1338.182861,776.304016 1290.199707,812.389099 
	C1212.082642,871.136047 1164.211670,948.869080 1148.630005,1045.447754 
	C1139.402222,1102.643921 1142.844482,1159.866455 1156.331665,1216.130371 
	C1176.941528,1302.107544 1225.242554,1368.559570 1301.955566,1412.715088 
	C1362.358276,1447.482422 1428.654907,1462.448364 1498.062256,1463.971436 
	C1538.444336,1464.857544 1578.608154,1462.004028 1618.622559,1456.394043 
	C1675.618530,1448.403198 1730.903442,1434.179443 1784.170898,1412.290649 
	C1797.773438,1406.700928 1799.314819,1404.360474 1798.449463,1389.817383 
	C1796.034790,1349.240479 1792.899048,1308.700317 1793.764648,1267.987549 
	C1794.139893,1250.332520 1793.827515,1232.662964 1793.827515,1213.000000 
M595.720642,639.278931 
	C579.752136,607.053406 563.555359,574.937866 547.952087,542.536438 
	C543.179077,532.624817 536.387634,527.449463 525.427856,527.788940 
	C524.096252,527.830200 522.761597,527.765442 521.428345,527.765381 
	C457.762634,527.762939 394.096863,527.742798 330.431213,527.799744 
	C325.580170,527.804077 319.716278,526.359314 316.947327,531.854492 
	C314.401489,536.906860 319.137085,540.518616 321.381256,544.322327 
	C407.044281,689.515747 492.801788,834.653442 578.531189,979.807800 
	C580.350586,982.888367 581.987488,986.076721 583.626648,989.063721 
	C581.578979,992.514648 579.912109,995.392761 578.180725,998.231506 
	C518.329407,1096.366699 458.471924,1194.498291 398.615173,1292.630249 
	C370.508514,1338.709473 342.404755,1384.790527 314.291321,1430.865723 
	C311.330627,1435.718018 308.019562,1440.470825 311.046478,1447.162231 
	C313.382538,1447.321655 315.974457,1447.652222 318.566498,1447.653198 
	C381.232239,1447.676514 443.897980,1447.666870 506.563721,1447.650269 
	C508.895233,1447.649658 511.234772,1447.620361 513.556641,1447.432617 
	C520.676880,1446.857178 525.765869,1443.806519 529.337585,1437.089722 
	C587.046509,1328.566528 644.937500,1220.140137 702.801575,1111.699341 
	C704.307312,1108.877563 705.973877,1106.141479 708.479797,1101.770630 
	C712.274353,1108.584229 715.331421,1113.961792 718.285706,1119.395142 
	C759.178650,1194.602661 800.235168,1269.722046 840.848755,1345.080200 
	C856.174438,1373.516724 870.628601,1402.428955 885.126343,1431.302002 
	C889.101624,1439.218872 894.819824,1443.783447 903.441467,1444.851440 
	C907.068054,1445.300415 910.727966,1445.740112 914.372986,1445.742310 
	C982.705261,1445.783447 1051.037476,1445.765503 1119.369751,1445.716919 
	C1121.911133,1445.715210 1124.452393,1445.278564 1126.906738,1445.052612 
	C1129.348267,1437.261108 1124.975586,1432.188721 1121.761230,1426.913818 
	C1032.127075,1279.819092 942.446838,1132.752197 852.781372,985.676453 
	C850.382874,981.742249 848.063232,977.759949 845.837219,974.019348 
	C847.566711,971.035645 848.860107,968.713745 850.236816,966.442322 
	C935.718994,825.403381 1021.210693,684.370178 1106.679321,543.323059 
	C1108.669189,540.039185 1112.265625,537.056396 1109.779175,532.544983 
	C1107.230957,527.921265 1102.687012,528.280090 1098.329468,528.323364 
	C1096.662964,528.339905 1094.996094,528.329285 1093.329468,528.329285 
	C1037.330322,528.329529 981.331116,528.331543 925.331970,528.325562 
	C921.332520,528.325134 917.332458,528.204651 913.333862,528.249146 
	C907.476868,528.314331 903.530518,530.921753 900.749756,536.336487 
	C887.666382,561.812378 874.541382,587.272583 860.987854,612.500244 
	C815.430176,697.298584 768.411133,781.327759 726.854126,868.224976 
	C726.218750,869.553589 725.133057,870.666870 723.605469,872.784851 
	C721.354736,868.550171 719.677612,865.388855 717.995361,862.230286 
	C699.363770,827.248962 681.092529,792.069458 662.003296,757.339661 
	C640.502625,718.222595 618.264771,679.510681 595.720642,639.278931 
z"/>
<path fill="#000000" opacity="1.000000" stroke="none" 
	d="
M327.062683,2.000000 
	C327.071503,5.957933 323.725800,5.507993 320.839905,5.967098 
	C280.794312,12.337743 242.529541,23.983919 206.301025,42.597721 
	C163.119080,64.784126 125.700081,93.907570 93.849121,130.567749 
	C57.867844,171.981903 32.315086,218.975479 17.504965,271.623230 
	C12.299875,290.126526 9.711833,309.363373 5.832572,328.245483 
	C5.324140,330.720245 4.240628,333.076904 2.711736,335.744141 
	C2.000000,224.814407 2.000000,113.628822 2.000000,2.000000 
	C110.041382,2.000000 218.083374,2.000000 327.062683,2.000000 
z"/>
<path fill="#000000" opacity="1.000000" stroke="none" 
	d="
M2.000000,1718.937256 
	C5.967761,1718.934814 5.560204,1722.264526 5.918732,1725.169434 
	C12.290075,1776.790894 29.073679,1824.828735 55.557571,1869.537720 
	C68.840431,1891.961426 84.648453,1912.410034 102.197006,1931.699463 
	C125.692871,1957.526245 152.610977,1979.041992 182.277939,1997.113525 
	C222.216965,2021.442139 265.380066,2037.515381 311.461304,2045.709717 
	C314.262146,2046.207886 316.906281,2047.587280 319.811646,2049.278320 
	C214.142853,2050.000000 108.285706,2050.000000 2.000000,2050.000000 
	C2.000000,1939.958618 2.000000,1829.916626 2.000000,1718.937256 
z"/>
<path fill="#000000" opacity="1.000000" stroke="none" 
	d="
M2104.000000,319.062683 
	C2099.629150,318.833008 2100.302734,314.973511 2099.765869,311.860870 
	C2094.767822,282.882141 2086.595459,254.862167 2075.101807,227.769531 
	C2061.618896,195.988510 2043.906372,166.742172 2022.293701,139.933319 
	C1999.183838,111.267159 1972.317383,86.479500 1941.721680,65.950928 
	C1895.158081,34.708569 1844.135864,14.667423 1788.659180,6.075043 
	C1785.850220,5.639987 1783.176147,4.335473 1780.219604,2.717899 
	C1887.852661,2.000000 1995.705200,2.000000 2104.000000,2.000000 
	C2104.000000,107.374710 2104.000000,212.750031 2104.000000,319.062683 
z"/>
<path fill="#000000" opacity="1.000000" stroke="none" 
	d="
M1788.937256,2050.000000 
	C1788.779053,2045.948608 1792.228516,2046.376953 1795.053589,2045.854736 
	C1822.949219,2040.698730 1850.262207,2033.540161 1876.383667,2022.271973 
	C1916.124756,2005.128540 1952.275879,1982.553833 1984.297607,1953.174072 
	C2021.372559,1919.157837 2049.975342,1879.246338 2071.247314,1833.804443 
	C2084.894531,1804.651001 2093.609863,1774.030029 2099.708740,1742.549072 
	C2100.251465,1739.748657 2101.591309,1737.102783 2103.280273,1734.192627 
	C2104.000000,1839.187378 2104.000000,1944.374634 2104.000000,2050.000000 
	C1999.291992,2050.000000 1894.583252,2050.000000 1788.937256,2050.000000 
z"/>
<path fill="#FE61F5" opacity="1.000000" stroke="none" 
	d="
M1793.827515,1214.000000 
	C1793.827515,1232.662964 1794.139893,1250.332520 1793.764648,1267.987549 
	C1792.899048,1308.700317 1796.034790,1349.240479 1798.449463,1389.817383 
	C1799.314819,1404.360474 1797.773438,1406.700928 1784.170898,1412.290649 
	C1730.903442,1434.179443 1675.618530,1448.403198 1618.622559,1456.394043 
	C1578.608154,1462.004028 1538.444336,1464.857544 1498.062256,1463.971436 
	C1428.654907,1462.448364 1362.358276,1447.482422 1301.955566,1412.715088 
	C1225.242554,1368.559570 1176.941528,1302.107544 1156.331665,1216.130371 
	C1142.844482,1159.866455 1139.402222,1102.643921 1148.630005,1045.447754 
	C1164.211670,948.869080 1212.082642,871.136047 1290.199707,812.389099 
	C1338.182861,776.304016 1392.525146,754.526367 1451.466553,743.871643 
	C1497.958496,735.467224 1544.716797,733.046631 1591.796021,737.333191 
	C1593.442139,737.483093 1595.113892,737.352295 1598.012695,737.352295 
	C1598.119873,733.494751 1598.319824,729.630432 1598.320557,725.766052 
	C1598.338501,641.450317 1598.510742,557.134033 1598.228760,472.819275 
	C1598.142212,446.961884 1601.894043,451.762756 1619.930908,451.715332 
	C1672.919434,451.575989 1725.908691,451.664490 1778.897583,451.664764 
	C1781.230347,451.664764 1783.566895,451.593292 1785.895264,451.697327 
	C1790.632568,451.909058 1793.263794,454.560303 1793.671997,459.164673 
	C1793.965332,462.473358 1793.823120,465.823395 1793.823120,469.154999 
	C1793.827881,717.103333 1793.827393,965.051697 1793.827515,1214.000000 
M1542.034668,1294.927002 
	C1552.353638,1294.528687 1562.673828,1294.156128 1572.991333,1293.724365 
	C1581.589844,1293.364624 1590.070679,1292.431519 1597.888428,1288.694214 
	C1597.888428,1160.217407 1597.888428,1032.337280 1597.888428,904.412842 
	C1595.606567,903.676025 1593.758789,902.807312 1591.822021,902.501709 
	C1583.934448,901.256897 1576.050659,899.858215 1568.109619,899.101868 
	C1517.732056,894.303772 1470.518433,903.896484 1427.859131,931.743103 
	C1391.603027,955.409790 1363.957520,986.572205 1352.597290,1029.184204 
	C1338.143433,1083.400757 1339.789062,1137.491211 1360.170288,1190.133179 
	C1379.175171,1239.219849 1413.909790,1271.751099 1465.094971,1286.146973 
	C1489.704590,1293.068481 1514.712036,1295.811523 1542.034668,1294.927002 
z"/>
<path fill="#FE61F5" opacity="1.000000" stroke="none" 
	d="
M596.034119,639.950745 
	C618.264771,679.510681 640.502625,718.222595 662.003296,757.339661 
	C681.092529,792.069458 699.363770,827.248962 717.995361,862.230286 
	C719.677612,865.388855 721.354736,868.550171 723.605469,872.784851 
	C725.133057,870.666870 726.218750,869.553589 726.854126,868.224976 
	C768.411133,781.327759 815.430176,697.298584 860.987854,612.500244 
	C874.541382,587.272583 887.666382,561.812378 900.749756,536.336487 
	C903.530518,530.921753 907.476868,528.314331 913.333862,528.249146 
	C917.332458,528.204651 921.332520,528.325134 925.331970,528.325562 
	C981.331116,528.331543 1037.330322,528.329529 1093.329468,528.329285 
	C1094.996094,528.329285 1096.662964,528.339905 1098.329468,528.323364 
	C1102.687012,528.280090 1107.230957,527.921265 1109.779175,532.544983 
	C1112.265625,537.056396 1108.669189,540.039185 1106.679321,543.323059 
	C1021.210693,684.370178 935.718994,825.403381 850.236816,966.442322 
	C848.860107,968.713745 847.566711,971.035645 845.837219,974.019348 
	C848.063232,977.759949 850.382874,981.742249 852.781372,985.676453 
	C942.446838,1132.752197 1032.127075,1279.819092 1121.761230,1426.913818 
	C1124.975586,1432.188721 1129.348267,1437.261108 1126.906738,1445.052612 
	C1124.452393,1445.278564 1121.911133,1445.715210 1119.369751,1445.716919 
	C1051.037476,1445.765503 982.705261,1445.783447 914.372986,1445.742310 
	C910.727966,1445.740112 907.068054,1445.300415 903.441467,1444.851440 
	C894.819824,1443.783447 889.101624,1439.218872 885.126343,1431.302002 
	C870.628601,1402.428955 856.174438,1373.516724 840.848755,1345.080200 
	C800.235168,1269.722046 759.178650,1194.602661 718.285706,1119.395142 
	C715.331421,1113.961792 712.274353,1108.584229 708.479797,1101.770630 
	C705.973877,1106.141479 704.307312,1108.877563 702.801575,1111.699341 
	C644.937500,1220.140137 587.046509,1328.566528 529.337585,1437.089722 
	C525.765869,1443.806519 520.676880,1446.857178 513.556641,1447.432617 
	C511.234772,1447.620361 508.895233,1447.649658 506.563721,1447.650269 
	C443.897980,1447.666870 381.232239,1447.676514 318.566498,1447.653198 
	C315.974457,1447.652222 313.382538,1447.321655 311.046478,1447.162231 
	C308.019562,1440.470825 311.330627,1435.718018 314.291321,1430.865723 
	C342.404755,1384.790527 370.508514,1338.709473 398.615173,1292.630249 
	C458.471924,1194.498291 518.329407,1096.366699 578.180725,998.231506 
	C579.912109,995.392761 581.578979,992.514648 583.626648,989.063721 
	C581.987488,986.076721 580.350586,982.888367 578.531189,979.807800 
	C492.801788,834.653442 407.044281,689.515747 321.381256,544.322327 
	C319.137085,540.518616 314.401489,536.906860 316.947327,531.854492 
	C319.716278,526.359314 325.580170,527.804077 330.431213,527.799744 
	C394.096863,527.742798 457.762634,527.762939 521.428345,527.765381 
	C522.761597,527.765442 524.096252,527.830200 525.427856,527.788940 
	C536.387634,527.449463 543.179077,532.624817 547.952087,542.536438 
	C563.555359,574.937866 579.752136,607.053406 596.034119,639.950745 
z"/>
<path fill="#480138" opacity="1.000000" stroke="none" 
	d="
M1541.109253,1294.984497 
	C1514.712036,1295.811523 1489.704590,1293.068481 1465.094971,1286.146973 
	C1413.909790,1271.751099 1379.175171,1239.219849 1360.170288,1190.133179 
	C1339.789062,1137.491211 1338.143433,1083.400757 1352.597290,1029.184204 
	C1363.957520,986.572205 1391.603027,955.409790 1427.859131,931.743103 
	C1470.518433,903.896484 1517.732056,894.303772 1568.109619,899.101868 
	C1576.050659,899.858215 1583.934448,901.256897 1591.822021,902.501709 
	C1593.758789,902.807312 1595.606567,903.676025 1597.888428,904.412842 
	C1597.888428,1032.337280 1597.888428,1160.217407 1597.888428,1288.694214 
	C1590.070679,1292.431519 1581.589844,1293.364624 1572.991333,1293.724365 
	C1562.673828,1294.156128 1552.353638,1294.528687 1541.109253,1294.984497 
z"/>
</svg>