<?xml version="1.0" standalone="no"?>
<!DOCTYPE svg PUBLIC "-//W3C//DTD SVG 20010904//EN"
 "http://www.w3.org/TR/2001/REC-SVG-20010904/DTD/svg10.dtd">
<svg version="1.0" xmlns="http://www.w3.org/2000/svg"
 width="2048.000000pt" height="2048.000000pt" viewBox="0 0 2048.000000 2048.000000"
 preserveAspectRatio="xMidYMid meet">

<g transform="translate(0.000000,2048.000000) scale(0.100000,-0.100000)"
fill="#000000" stroke="none">
<path d="M9785 20469 c-104 -5 -237 -13 -295 -19 -58 -6 -161 -15 -230 -20
-672 -53 -1548 -238 -2260 -477 -1781 -597 -3368 -1675 -4586 -3113 -893
-1055 -1569 -2297 -1970 -3620 -634 -2087 -582 -4362 146 -6405 449 -1260
1120 -2388 2024 -3405 155 -174 622 -641 796 -796 854 -760 1777 -1348 2810
-1791 1592 -683 3364 -948 5111 -763 2684 285 5132 1615 6855 3725 1036 1269
1770 2821 2088 4417 142 713 200 1306 200 2043 0 582 -26 935 -114 1555 -37
256 -119 658 -200 975 -352 1382 -1005 2700 -1892 3817 -233 294 -458 547
-738 832 -1329 1350 -2995 2301 -4830 2755 -315 78 -779 168 -1035 200 -44 6
-132 17 -195 25 -63 8 -173 20 -245 26 -71 6 -177 15 -235 20 -306 28 -815 36
-1205 19z m-4863 -6006 c22 -26 3025 -4731 3092 -4846 32 -54 60 -96 62 -94 3
2 -3 80 -13 173 -15 153 -17 382 -20 2472 l-4 2302 346 0 345 0 0 -2915 0
-2915 -422 0 -423 0 -1480 2297 c-814 1263 -1512 2349 -1551 2413 -39 65 -89
159 -110 209 -41 96 -68 120 -59 54 22 -160 25 -497 25 -2640 l0 -2333 -340 0
-340 0 0 2920 0 2920 438 0 c406 0 440 -1 454 -17z m12998 -298 l0 -315 -845
0 -845 0 0 -2605 0 -2605 -345 0 -345 0 0 2605 0 2605 -837 2 -838 3 -3 300
c-1 165 0 305 3 312 3 10 409 13 2030 13 l2025 0 0 -315z m-4722 -2 l-3 -308
-1127 -3 -1128 -2 0 -965 0 -965 1050 0 1050 0 0 -310 0 -310 -1050 0 -1050 0
0 -1010 0 -1010 1206 0 1207 0 -7 -92 c-3 -50 -6 -194 -6 -320 l0 -228 -1550
0 -1550 0 0 2915 0 2915 1480 0 1480 0 -2 -307z m-10645 -4731 c91 -42 182
-133 228 -227 33 -68 34 -74 34 -190 0 -114 -2 -123 -31 -185 -139 -290 -509
-362 -728 -141 -87 87 -121 154 -136 266 -17 134 28 272 122 371 105 111 185
145 338 141 95 -2 112 -6 173 -35z m5486 -2168 c93 -16 233 -53 294 -79 l37
-15 0 -160 c0 -88 -2 -160 -5 -160 -3 0 -36 15 -73 34 -259 130 -621 162 -886
80 -334 -105 -584 -380 -683 -752 -23 -86 -27 -121 -31 -308 -3 -167 -1 -228
12 -298 45 -237 180 -478 341 -605 198 -158 407 -221 687 -208 209 10 381 53
551 138 l77 39 0 -150 0 -151 -47 -20 c-229 -100 -497 -148 -768 -136 -263 12
-446 69 -646 202 -256 170 -436 441 -516 775 -31 131 -43 430 -23 587 56 452
320 847 702 1052 143 78 333 135 498 151 113 11 372 3 479 -16z m1971 -759
c295 -96 476 -290 577 -620 27 -88 28 -96 27 -335 0 -239 -1 -247 -27 -334
-111 -358 -349 -595 -683 -678 -115 -28 -350 -31 -458 -5 -266 66 -473 227
-601 470 -91 173 -121 324 -112 576 6 195 30 299 102 448 96 197 218 321 411
416 160 80 253 97 489 93 176 -2 196 -5 275 -31z m3378 9 c42 -9 113 -33 157
-53 156 -74 253 -169 333 -326 83 -165 112 -304 112 -536 l0 -159 -676 0 -677
0 6 -87 c9 -151 76 -316 167 -410 51 -52 141 -108 218 -135 59 -20 86 -23 222
-23 116 0 171 5 220 18 108 29 215 76 300 132 l80 53 0 -144 0 -144 -42 -27
c-72 -45 -183 -92 -285 -121 -93 -26 -109 -27 -318 -27 -202 0 -226 2 -295 23
-149 47 -311 153 -389 256 -49 66 -100 155 -134 234 -120 281 -113 692 19 971
127 271 347 452 614 506 92 19 275 18 368 -1z m-1312 -15 l44 -11 0 -159 c0
-88 -2 -159 -5 -159 -3 0 -16 7 -28 14 -32 21 -133 46 -187 46 -104 0 -225
-54 -295 -132 -72 -80 -142 -245 -165 -388 -6 -38 -10 -288 -10 -607 l0 -543
-160 0 -160 0 0 960 0 960 160 0 160 0 0 -192 0 -193 25 59 c66 162 192 287
340 338 59 20 212 24 281 7z"/>
<path d="M9515 6245 c-183 -51 -323 -181 -401 -373 -51 -126 -59 -176 -59
-362 1 -203 10 -252 81 -399 80 -165 220 -280 394 -322 81 -20 271 -17 345 5
159 47 265 137 338 286 76 154 90 223 90 435 0 212 -15 282 -89 435 -76 154
-194 253 -354 295 -70 19 -276 18 -345 0z"/>
<path d="M13081 6244 c-100 -21 -168 -59 -247 -138 -99 -100 -171 -235 -189
-361 l-7 -45 517 0 518 0 -7 74 c-8 93 -28 161 -73 249 -43 86 -102 145 -184
185 -106 52 -205 63 -328 36z"/>
</g>
</svg>
