<svg version="1.1" id="Layer_1" xmlns="http://www.w3.org/2000/svg" xmlns:xlink="http://www.w3.org/1999/xlink" x="0px" y="0px"
	 width="100%" viewBox="0 0 2048 2048" enable-background="new 0 0 2048 2048" xml:space="preserve">
<path fill="#BE0000" opacity="1.000000" stroke="none" 
	d="
M2049.000000,69.000000 
	C2049.000000,99.354225 2049.000000,129.708450 2048.540283,160.532379 
	C2043.977539,161.331726 2039.799927,161.277435 2035.783936,162.056030 
	C2016.137573,165.864868 2001.166748,176.670364 1990.846558,193.629532 
	C1982.349854,207.592606 1979.146851,222.728485 1981.898315,239.132507 
	C1984.179199,252.730362 1989.907227,264.477509 1999.104004,274.554077 
	C2012.467285,289.195740 2029.532959,295.818878 2049.000000,297.000000 
	C2049.000000,327.020905 2049.000000,357.041779 2048.556396,387.528137 
	C2043.595581,388.573730 2038.818848,388.414734 2034.615845,389.890167 
	C2026.254272,392.825439 2018.208130,396.659912 2009.913330,399.734222 
	C2007.468018,398.897003 2005.141235,398.056549 2002.814331,398.055786 
	C1814.211792,397.995178 1625.609131,398.000031 1436.969971,397.591248 
	C1443.587891,365.695526 1450.242188,334.208618 1456.979004,302.331665 
	C1454.261230,302.331665 1452.108032,302.331665 1449.954956,302.331665 
	C1156.239624,302.331665 862.524231,302.331665 568.808899,302.331665 
	C567.642700,302.331665 566.463562,302.443146 565.312927,302.309509 
	C562.684692,302.004211 561.518860,302.988831 560.964050,305.708740 
	C557.408569,323.139832 553.759277,340.553192 549.954224,357.931519 
	C546.731506,372.649963 543.257080,387.313293 539.432007,402.000610 
	C378.927582,402.000153 218.885178,402.013153 58.842815,401.931610 
	C54.425621,401.929382 50.018143,400.803558 45.586922,400.428864 
	C44.077995,400.301239 42.509914,400.873199 40.655106,400.964722 
	C28.527674,392.541229 15.494775,388.024719 1.000000,388.000000 
	C1.000000,357.979095 1.000000,327.958221 1.426978,297.468506 
	C5.121230,296.645172 8.430367,296.511627 11.649282,295.901855 
	C42.833321,289.994324 65.306435,266.645447 68.808861,234.861343 
	C71.011505,214.872665 64.419945,197.002213 50.672264,182.328644 
	C37.354282,168.113739 20.899977,160.322495 1.000000,161.000000 
	C1.000000,130.645767 1.000000,100.291542 1.447952,69.468063 
	C38.156567,68.497314 68.916901,38.526733 69.000000,1.000000 
	C99.354225,1.000000 129.708450,1.000000 160.527161,1.459684 
	C160.882858,23.942905 170.128662,41.441853 187.313309,54.702785 
	C203.820984,67.441299 222.559708,72.149040 243.035187,67.415436 
	C274.535889,60.132988 295.424591,34.136791 297.000000,1.000000 
	C327.020905,1.000000 357.041779,1.000000 387.531738,1.443594 
	C388.422791,13.359532 391.221130,24.087723 397.034515,34.128654 
	C409.051300,54.884079 427.146606,66.739662 450.667816,68.754852 
	C472.987671,70.667114 492.027130,62.680260 507.092743,45.492012 
	C518.349365,32.649403 524.010010,17.976421 524.000000,1.000000 
	C554.354248,1.000000 584.708435,1.000000 615.531494,1.459164 
	C616.333374,22.629967 624.614868,39.383774 640.314758,52.940712 
	C661.182495,70.960083 692.576782,74.402100 716.958679,60.008492 
	C739.575439,46.656921 750.387085,26.647013 752.000000,1.000000 
	C782.020874,1.000000 812.041809,1.000000 842.531982,1.438200 
	C844.249451,38.496922 873.941772,71.053658 915.459167,68.896324 
	C949.188110,67.143700 979.378357,38.293831 979.000000,1.000000 
	C1009.354248,1.000000 1039.708496,1.000000 1070.531738,1.456085 
	C1071.005493,38.244801 1100.950317,67.717781 1136.010254,68.957184 
	C1176.731689,70.396744 1206.508179,37.362133 1207.000000,1.000000 
	C1237.020874,1.000000 1267.041870,1.000000 1297.531982,1.431669 
	C1298.744019,7.046577 1298.966187,12.369469 1300.312988,17.390684 
	C1310.057129,53.718807 1344.816650,75.146233 1380.252930,67.652954 
	C1411.121948,61.125462 1434.838379,33.694080 1434.000000,1.000000 
	C1464.354248,1.000000 1494.708496,1.000000 1525.531494,1.452840 
	C1526.185303,38.434967 1556.221191,67.540291 1590.749878,68.975220 
	C1631.124756,70.653084 1661.917480,37.604763 1662.000000,1.000000 
	C1692.020874,1.000000 1722.041870,1.000000 1752.532715,1.426960 
	C1753.331055,3.622893 1753.826050,5.379158 1753.962036,7.162786 
	C1755.480835,27.095253 1764.808594,42.763298 1780.362061,54.829853 
	C1807.090942,75.566078 1842.763672,73.506973 1867.302002,51.001270 
	C1881.748779,37.751152 1889.680542,21.099869 1889.000000,1.000000 
	C1919.354248,1.000000 1949.708496,1.000000 1980.531738,1.447947 
	C1981.602905,38.518608 2011.404419,68.820671 2049.000000,69.000000 
z"/>
<path fill="#900000" opacity="1.000000" stroke="none" 
	d="
M1753.000000,2049.000000 
	C1722.979126,2049.000000 1692.958130,2049.000000 1662.469238,2048.557617 
	C1661.183350,2011.880859 1631.043945,1979.510010 1590.982178,1981.033813 
	C1555.907959,1982.367920 1525.545166,2011.894043 1526.000000,2049.000000 
	C1495.645752,2049.000000 1465.291504,2049.000000 1434.468872,2048.543945 
	C1433.566528,2010.727661 1404.213989,1982.735474 1369.492188,1981.111084 
	C1328.827881,1979.208862 1298.803223,2011.920288 1298.000000,2049.000000 
	C1267.979126,2049.000000 1237.958130,2049.000000 1207.469360,2048.562988 
	C1205.724976,2011.350464 1175.857788,1978.840698 1134.647461,1981.113770 
	C1100.507935,1982.996826 1070.752319,2011.672974 1071.000000,2049.000000 
	C1040.645752,2049.000000 1010.291565,2049.000000 979.469849,2048.543945 
	C979.015808,2011.687866 948.905396,1982.074951 913.450073,1981.031250 
	C873.591431,1979.858032 843.455872,2012.278809 843.000000,2049.000000 
	C812.979126,2049.000000 782.958191,2049.000000 752.469482,2048.569336 
	C751.245544,2042.943359 750.969666,2037.623291 749.656372,2032.572876 
	C740.379517,1996.899292 705.140869,1974.906738 669.924011,1982.284668 
	C639.456604,1988.667725 615.333679,2015.737671 616.000000,2049.000000 
	C585.645752,2049.000000 555.291565,2049.000000 524.469788,2048.547363 
	C523.853027,2011.769531 493.721619,1981.969849 458.208710,1980.995117 
	C418.811310,1979.913696 387.985474,2012.355957 388.000000,2049.000000 
	C357.979095,2049.000000 327.958221,2049.000000 297.468292,2048.574463 
	C296.675171,2046.372314 296.189880,2044.608032 296.051697,2042.817017 
	C294.509827,2022.837524 285.155731,2007.084229 269.524414,1995.079956 
	C242.499512,1974.326050 207.121002,1976.570190 182.426956,1999.225952 
	C168.011917,2012.451172 160.410889,2029.080933 161.000000,2049.000000 
	C130.645767,2049.000000 100.291542,2049.000000 69.469719,2048.552246 
	C68.480171,2011.866211 38.497288,1981.057739 1.000000,1981.000000 
	C1.000000,1950.645752 1.000000,1920.291504 1.459592,1889.475098 
	C20.561623,1889.586792 36.119514,1882.189819 48.910915,1869.356689 
	C59.300560,1858.933105 66.019669,1846.326050 68.218002,1831.309326 
	C71.304581,1810.224976 65.135262,1792.070923 51.664661,1776.334961 
	C38.494232,1760.949829 20.935642,1754.167847 1.000000,1753.000000 
	C1.000000,1722.979126 1.000000,1692.958130 1.443690,1662.464844 
	C15.348371,1661.481689 27.800688,1657.793335 39.108231,1650.534668 
	C42.283142,1651.241821 45.364689,1651.944092 48.447739,1651.950684 
	C84.263733,1652.027832 120.079956,1652.001221 155.896118,1651.999756 
	C364.962494,1651.990601 574.028870,1651.981079 783.381042,1652.157959 
	C808.491272,1696.285034 833.315735,1740.225952 858.197449,1784.268066 
	C874.912292,1773.374756 892.715576,1766.588135 911.378967,1761.987549 
	C961.718018,1749.578735 1012.992859,1747.173950 1064.248169,1751.682617 
	C1104.965088,1755.264404 1145.422974,1762.181396 1185.852783,1768.529785 
	C1229.337280,1775.357910 1272.816040,1780.992432 1316.988647,1780.450073 
	C1365.762817,1779.850952 1414.048706,1775.777832 1461.604370,1764.400513 
	C1515.030029,1751.618774 1565.838135,1731.755737 1615.422363,1708.439819 
	C1618.872192,1706.817505 1620.331665,1704.744385 1621.072510,1701.184570 
	C1624.628418,1684.095825 1628.427246,1667.057617 1632.599609,1650.000732 
	C1754.528687,1650.000000 1875.997803,1649.994263 1997.466919,1650.031860 
	C2000.601074,1650.032837 2003.731812,1650.600342 2006.870850,1650.710693 
	C2007.915771,1650.747681 2008.982056,1650.180420 2010.351807,1650.047729 
	C2022.430420,1657.429688 2034.984985,1662.088379 2049.000000,1662.000000 
	C2049.000000,1692.020874 2049.000000,1722.041870 2048.574463,1752.533691 
	C2046.204956,1753.334595 2044.271729,1753.854492 2042.315430,1753.964233 
	C2027.310425,1754.806274 2014.454224,1761.079224 2003.738770,1770.994263 
	C1986.117188,1787.299438 1978.482300,1807.505493 1981.870117,1831.773682 
	C1985.466309,1857.534546 2006.540771,1881.387817 2032.011353,1887.085815 
	C2037.611328,1888.338501 2043.333862,1889.043091 2049.000000,1890.000000 
	C2049.000000,1920.020874 2049.000000,1950.041870 2048.552246,1980.530762 
	C2011.458740,1981.622192 1981.176514,2011.472900 1981.000000,2049.000000 
	C1950.645752,2049.000000 1920.291504,2049.000000 1889.468628,2048.540527 
	C1889.607300,2029.634888 1882.268311,2014.260376 1869.742676,2001.439819 
	C1859.273560,1990.723999 1846.485229,1984.000732 1831.295410,1981.802979 
	C1809.453613,1978.642944 1790.935547,1985.308472 1774.865967,1999.690796 
	C1760.230225,2012.789673 1754.311768,2029.911865 1753.000000,2049.000000 
z"/>
<path fill="#B20000" opacity="1.000000" stroke="none" 
	d="
M2049.000000,598.000000 
	C2049.000000,603.688049 2049.000000,609.376038 2048.540527,615.533997 
	C2045.085938,616.035950 2041.991577,615.585266 2039.112061,616.178040 
	C2019.704468,620.173584 2003.333496,629.135315 1992.406372,646.248108 
	C1983.042725,660.912476 1979.044800,676.752136 1981.817505,694.287476 
	C1983.915649,707.557373 1990.061890,718.643188 1997.705933,729.025391 
	C1994.501343,729.389648 1991.712646,729.961914 1988.923828,729.962158 
	C1573.680786,730.002136 1158.437622,730.000671 743.166077,729.608765 
	C743.403870,728.085266 743.689819,726.958252 743.933716,725.822144 
	C753.095642,683.148376 762.253723,640.473694 771.915833,597.847351 
	C775.250854,597.930359 778.082336,597.995667 780.913879,597.995728 
	C1203.609253,598.000244 1626.304688,598.000000 2049.000000,598.000000 
z"/>
<path fill="#AE0000" opacity="1.000000" stroke="none" 
	d="
M743.194580,730.000977 
	C1158.437622,730.000671 1573.680786,730.002136 1988.923828,729.962158 
	C1991.712646,729.961914 1994.501343,729.389648 1998.000000,729.171143 
	C2012.247803,743.971008 2029.223877,751.081299 2049.000000,752.000000 
	C2049.000000,782.023315 2049.000000,812.046631 2048.562500,842.533936 
	C2045.684814,843.324219 2043.246338,843.665833 2040.803589,843.974426 
	C2016.323120,847.066895 1998.707520,860.324036 1987.820679,881.860962 
	C1977.982300,901.324097 1978.474731,921.547424 1988.161987,941.141785 
	C1991.108154,947.101013 1995.431396,952.379395 1998.647461,957.977661 
	C1902.842896,957.991150 1807.514526,957.996582 1712.163574,957.615601 
	C1723.258911,911.816833 1734.376953,866.404480 1745.657593,820.328308 
	C1404.435913,820.328308 1064.372803,820.328308 724.173157,820.328308 
	C724.102051,819.275696 723.909546,818.606384 724.037903,818.005676 
	C727.130066,803.537781 730.182129,789.060547 733.407349,774.622131 
	C735.103638,767.028320 737.263611,759.537598 738.939148,751.939758 
	C740.542847,744.667664 741.790405,737.317078 743.194580,730.000977 
z"/>
<path fill="#B60000" opacity="1.000000" stroke="none" 
	d="
M40.968861,401.125519 
	C42.509914,400.873199 44.077995,400.301239 45.586922,400.428864 
	C50.018143,400.803558 54.425621,401.929382 58.842815,401.931610 
	C218.885178,402.013153 378.927582,402.000153 539.570740,402.398682 
	C536.504883,419.460907 532.801575,436.116730 529.182312,452.790771 
	C525.758850,468.562897 522.375793,484.344177 519.062073,500.139679 
	C515.147156,518.800659 511.305084,537.476929 507.470581,556.154602 
	C504.692169,569.688110 502.021576,583.243774 499.222351,596.772949 
	C496.313019,610.834595 493.335663,624.882263 490.334381,638.924622 
	C487.704041,651.231384 484.991730,663.520569 482.329224,675.820496 
	C478.564606,693.212036 474.812469,710.606262 470.582886,727.999695 
	C331.032684,727.989502 191.954575,727.978943 53.037132,727.660522 
	C53.707447,726.511658 54.140476,725.611572 54.737942,724.838562 
	C70.093536,704.971008 73.176117,682.812439 64.629967,659.750854 
	C55.023048,633.826843 30.213877,615.370850 1.000000,616.000000 
	C1.000000,585.645752 1.000000,555.291565 1.452735,524.467407 
	C29.098948,524.244385 57.932858,504.750092 66.396957,474.387573 
	C73.820885,447.756439 64.661667,419.188629 40.968861,401.125519 
z"/>
<path fill="#B60000" opacity="1.000000" stroke="none" 
	d="
M2049.000000,597.531372 
	C1626.304688,598.000000 1203.609253,598.000244 780.913879,597.995728 
	C778.082336,597.995667 775.250854,597.930359 771.936340,597.426147 
	C773.301147,588.365356 775.148987,579.773926 777.059998,570.888672 
	C984.810547,570.888672 1192.307007,570.888672 1399.888184,570.888672 
	C1408.642090,529.746582 1417.295288,488.929779 1426.023193,448.128845 
	C1429.601318,431.401489 1433.340576,414.708618 1437.006592,398.000061 
	C1625.609131,398.000031 1814.211792,397.995178 2002.814331,398.055786 
	C2005.141235,398.056549 2007.468018,398.897003 2009.764648,400.034363 
	C1986.143311,417.262360 1975.417725,448.641846 1983.702881,475.444763 
	C1992.637939,504.350006 2020.300781,524.843689 2049.000000,524.000000 
	C2049.000000,548.354248 2049.000000,572.708435 2049.000000,597.531372 
z"/>
<path fill="#AB0000" opacity="1.000000" stroke="none" 
	d="
M52.876461,727.968445 
	C191.954575,727.978943 331.032684,727.989502 470.655182,728.407471 
	C470.868286,730.056824 470.473724,731.285828 470.215240,732.542725 
	C466.981415,748.269165 463.856689,764.018555 460.532959,779.725830 
	C445.051666,852.887451 429.538116,926.042358 413.986877,999.189209 
	C409.810852,1018.831787 405.461731,1038.437500 400.711609,1058.044312 
	C267.154083,1058.018921 134.077042,1058.009399 1.000000,1058.000000 
	C1.000000,1031.979126 1.000000,1005.958191 1.456049,979.470825 
	C22.824162,978.819397 39.614834,970.131348 53.137970,954.443970 
	C70.842949,933.905396 74.578651,902.523987 59.934181,877.870605 
	C46.584087,855.396423 26.689577,844.406433 1.000000,843.000000 
	C1.000000,812.979126 1.000000,782.958191 1.437215,752.463867 
	C9.205699,750.549744 16.709967,749.683105 23.828941,747.537903 
	C35.406048,744.049255 44.508141,736.450928 52.876461,727.968445 
z"/>
<path fill="#990000" opacity="1.000000" stroke="none" 
	d="
M2010.038696,1649.889404 
	C2008.982056,1650.180420 2007.915771,1650.747681 2006.870850,1650.710693 
	C2003.731812,1650.600342 2000.601074,1650.032837 1997.466919,1650.031860 
	C1875.997803,1649.994263 1754.528687,1650.000000 1632.563843,1649.603394 
	C1644.591553,1590.362671 1657.115112,1531.518433 1669.735229,1472.220337 
	C1667.986206,1472.607544 1666.849609,1472.728394 1665.807861,1473.109253 
	C1643.463257,1481.276733 1621.262329,1489.861084 1598.763306,1497.576660 
	C1561.165527,1510.469971 1522.814331,1520.908569 1483.884766,1528.780396 
	C1453.538696,1534.916626 1422.919189,1539.963135 1392.228760,1544.048218 
	C1368.577637,1547.196289 1344.655762,1548.882935 1320.801025,1549.743896 
	C1302.753906,1550.395386 1284.593750,1549.146851 1266.538818,1547.930664 
	C1253.897827,1547.078979 1241.311401,1545.102783 1228.768188,1543.186890 
	C1210.051025,1540.328247 1191.389648,1537.101929 1172.712402,1533.984619 
	C1167.183350,1533.061890 1161.680908,1531.979858 1154.953247,1530.748901 
	C1157.186157,1528.834961 1158.502075,1527.823608 1159.685181,1526.675537 
	C1181.906982,1505.115845 1204.103271,1483.529663 1226.325684,1461.970703 
	C1241.849487,1446.910400 1257.404785,1431.882446 1273.252441,1417.130859 
	C1275.856567,1417.614746 1278.154053,1417.975708 1280.451538,1417.976074 
	C1455.703003,1418.002319 1630.954346,1418.003540 1806.205811,1417.998169 
	C1872.174805,1417.996216 1938.143921,1417.973511 2004.452026,1418.012451 
	C2017.778564,1428.228149 2032.045410,1434.842163 2049.000000,1434.000000 
	C2049.000000,1464.354248 2049.000000,1494.708496 2048.547363,1525.530640 
	C2043.507690,1526.446777 2038.776978,1526.327759 2034.359863,1527.446655 
	C2019.531738,1531.202759 2006.741333,1538.407593 1996.925293,1550.519043 
	C1980.606934,1570.653076 1976.939087,1592.970703 1985.148193,1617.321655 
	C1989.736694,1630.932861 1999.265747,1640.924194 2010.038696,1649.889404 
z"/>
<path fill="#980000" opacity="1.000000" stroke="none" 
	d="
M783.095276,1651.971558 
	C574.028870,1651.981079 364.962494,1651.990601 155.896118,1651.999756 
	C120.079956,1652.001221 84.263733,1652.027832 48.447739,1651.950684 
	C45.364689,1651.944092 42.283142,1651.241821 39.402260,1650.352295 
	C43.169216,1646.629517 46.990337,1643.656128 50.256516,1640.163696 
	C64.823006,1624.587402 70.981606,1606.374756 68.118149,1584.943726 
	C65.827385,1567.799072 58.208862,1553.960205 45.283688,1542.705200 
	C32.557060,1531.622925 17.894127,1525.914673 1.000000,1526.000000 
	C1.000000,1502.312378 1.000000,1478.624878 1.468657,1454.468628 
	C102.172585,1454.000000 202.407867,1453.986206 302.643097,1454.042480 
	C307.433655,1454.045166 312.223877,1454.666748 317.045593,1455.407349 
	C316.400665,1457.924927 315.529419,1459.994507 315.078796,1462.151855 
	C311.193146,1480.755005 307.450165,1499.387939 303.529388,1517.983643 
	C300.469818,1532.494995 297.138458,1546.948975 294.072327,1561.458984 
	C290.797699,1576.955688 287.644989,1592.478760 284.533356,1608.009155 
	C282.958069,1615.871582 281.590546,1623.775635 280.132172,1631.644165 
	C370.404022,1631.644165 460.302307,1631.644165 550.039185,1631.644165 
	C550.358643,1631.036377 550.587952,1630.761353 550.653992,1630.451538 
	C564.106323,1567.348877 577.525635,1504.239136 591.002502,1441.141602 
	C594.576477,1424.408447 598.326050,1407.712891 602.379395,1390.940796 
	C605.648987,1390.254395 608.533752,1389.080811 611.419495,1389.078613 
	C731.889893,1388.986816 852.360413,1388.994507 972.830872,1389.043823 
	C974.938110,1389.044678 977.045105,1389.703735 979.021973,1390.369019 
	C905.619080,1463.383667 832.346558,1536.084961 759.153625,1608.707153 
	C767.365601,1623.546753 775.230408,1637.759155 783.095276,1651.971558 
z"/>
<path fill="#9E0000" opacity="1.000000" stroke="none" 
	d="
M2004.112915,1417.960327 
	C1938.143921,1417.973511 1872.174805,1417.996216 1806.205811,1417.998169 
	C1630.954346,1418.003540 1455.703003,1418.002319 1280.451538,1417.976074 
	C1278.154053,1417.975708 1275.856567,1417.614746 1273.374268,1416.823486 
	C1283.081055,1406.657715 1292.994263,1397.112427 1302.860718,1387.519165 
	C1341.885620,1349.575684 1380.874146,1311.594727 1419.920898,1273.673950 
	C1438.181396,1255.940063 1456.543945,1238.311279 1475.151978,1220.956299 
	C1477.725708,1221.518433 1480.007935,1221.969604 1482.290039,1221.969971 
	C1671.193359,1222.002441 1860.096680,1222.000000 2049.000000,1222.000000 
	C2049.000000,1247.020874 2049.000000,1272.041870 2048.569336,1297.531982 
	C2043.923218,1298.651123 2039.689209,1299.198730 2035.495728,1299.967041 
	C1996.969604,1307.025513 1972.112183,1348.417480 1983.819458,1385.755737 
	C1987.761597,1398.328003 1995.189331,1408.586792 2004.112915,1417.960327 
z"/>
<path fill="#A50000" opacity="1.000000" stroke="none" 
	d="
M2049.000000,1221.533936 
	C1860.096680,1222.000000 1671.193359,1222.002441 1482.290039,1221.969971 
	C1480.007935,1221.969604 1477.725708,1221.518433 1475.280640,1220.658691 
	C1549.358643,1147.839844 1623.618896,1075.659546 1697.754272,1003.351196 
	C1700.182373,1000.982910 1702.040771,997.506958 1702.961914,994.211182 
	C1706.313599,982.218872 1709.153442,970.083496 1712.186279,958.002014 
	C1807.514526,957.996582 1902.842896,957.991150 1998.942627,958.123291 
	C2013.516846,971.414246 2029.550781,979.265503 2049.000000,979.000000 
	C2049.000000,1009.354248 2049.000000,1039.708496 2048.543945,1070.532471 
	C2012.460449,1070.689209 1979.886108,1101.623535 1981.012695,1140.619751 
	C1982.050659,1176.545532 2011.388184,1206.371826 2049.000000,1207.000000 
	C2049.000000,1211.689331 2049.000000,1216.378540 2049.000000,1221.533936 
z"/>
<path fill="#A20000" opacity="1.000000" stroke="none" 
	d="
M1.000000,1058.463135 
	C134.077042,1058.009399 267.154083,1058.018921 400.729614,1058.459961 
	C398.167664,1072.231079 394.973236,1085.541992 392.080383,1098.917847 
	C388.372040,1116.064453 384.952576,1133.273193 381.322327,1150.436890 
	C377.956940,1166.348633 374.413330,1182.222534 371.065735,1198.137817 
	C367.148346,1216.762329 363.342926,1235.410522 359.517792,1254.054321 
	C356.714508,1267.717529 354.068787,1281.414062 351.139221,1295.049927 
	C349.339966,1303.424438 347.138062,1311.712646 344.641052,1320.029053 
	C248.847076,1320.012451 153.528992,1319.999634 58.210941,1320.043457 
	C56.102413,1320.044434 53.994179,1320.692017 51.595123,1320.885254 
	C37.782848,1305.970703 20.741865,1298.996948 1.000000,1298.000000 
	C1.000000,1267.979126 1.000000,1237.958130 1.442232,1207.468506 
	C16.892628,1206.147339 30.356981,1201.596191 42.446140,1192.202637 
	C58.433418,1179.779907 67.401527,1163.544922 68.778366,1143.806152 
	C70.359406,1121.140015 62.297207,1101.898315 44.523949,1087.037476 
	C31.868565,1076.455811 17.575006,1070.737427 1.000000,1071.000000 
	C1.000000,1066.975464 1.000000,1062.950928 1.000000,1058.463135 
z"/>
<path fill="#9C0000" opacity="1.000000" stroke="none" 
	d="
M51.885803,1321.037964 
	C53.994179,1320.692017 56.102413,1320.044434 58.210941,1320.043457 
	C153.528992,1319.999634 248.847076,1320.012451 344.650513,1320.460449 
	C345.184631,1321.556030 345.389008,1322.242310 345.259705,1322.858643 
	C339.515045,1350.243652 333.787903,1377.632446 327.953094,1404.998413 
	C324.395386,1421.684448 320.666382,1438.333984 317.014282,1455.000000 
	C312.223877,1454.666748 307.433655,1454.045166 302.643097,1454.042480 
	C202.407867,1453.986206 102.172585,1454.000000 1.468657,1454.000000 
	C1.000000,1447.645630 1.000000,1441.291138 1.459620,1434.469116 
	C7.925807,1433.181274 14.140684,1433.075562 19.897148,1431.397461 
	C33.384151,1427.465332 44.759300,1420.202026 53.683453,1408.946533 
	C62.666592,1397.616699 67.821815,1384.900024 68.895271,1370.710327 
	C70.320686,1351.868164 63.702271,1335.492554 51.885803,1321.037964 
z"/>
<path fill="#000000" opacity="1.000000" stroke="none" 
	d="
M2049.000000,523.531372 
	C2020.300781,524.843689 1992.637939,504.350006 1983.702881,475.444763 
	C1975.417725,448.641846 1986.143311,417.262360 2009.883179,400.423035 
	C2018.208130,396.659912 2026.254272,392.825439 2034.615845,389.890167 
	C2038.818848,388.414734 2043.595581,388.573730 2048.556396,387.996826 
	C2049.000000,433.020905 2049.000000,478.041779 2049.000000,523.531372 
z"/>
<path fill="#000000" opacity="1.000000" stroke="none" 
	d="
M2049.000000,1889.531372 
	C2043.333862,1889.043091 2037.611328,1888.338501 2032.011353,1887.085815 
	C2006.540771,1881.387817 1985.466309,1857.534546 1981.870117,1831.773682 
	C1978.482300,1807.505493 1986.117188,1787.299438 2003.738770,1770.994263 
	C2014.454224,1761.079224 2027.310425,1754.806274 2042.315430,1753.964233 
	C2044.271729,1753.854492 2046.204956,1753.334595 2048.574463,1753.002441 
	C2049.000000,1798.354248 2049.000000,1843.708496 2049.000000,1889.531372 
z"/>
<path fill="#000000" opacity="1.000000" stroke="none" 
	d="
M2010.351807,1650.047852 
	C1999.265747,1640.924194 1989.736694,1630.932861 1985.148193,1617.321655 
	C1976.939087,1592.970703 1980.606934,1570.653076 1996.925293,1550.519043 
	C2006.741333,1538.407593 2019.531738,1531.202759 2034.359863,1527.446655 
	C2038.776978,1526.327759 2043.507690,1526.446777 2048.547363,1525.999268 
	C2049.000000,1571.020874 2049.000000,1616.041870 2049.000000,1661.531372 
	C2034.984985,1662.088379 2022.430420,1657.429688 2010.351807,1650.047852 
z"/>
<path fill="#000000" opacity="1.000000" stroke="none" 
	d="
M388.468658,2049.000000 
	C387.985474,2012.355957 418.811310,1979.913696 458.208710,1980.995117 
	C493.721619,1981.969849 523.853027,2011.769531 524.001099,2048.547363 
	C478.979095,2049.000000 433.958221,2049.000000 388.468658,2049.000000 
z"/>
<path fill="#000000" opacity="1.000000" stroke="none" 
	d="
M2049.000000,751.531372 
	C2029.223877,751.081299 2012.247803,743.971008 1998.415771,729.112061 
	C1990.061890,718.643188 1983.915649,707.557373 1981.817505,694.287476 
	C1979.044800,676.752136 1983.042725,660.912476 1992.406372,646.248108 
	C2003.333496,629.135315 2019.704468,620.173584 2039.112061,616.178040 
	C2041.991577,615.585266 2045.085938,616.035950 2048.540527,616.001953 
	C2049.000000,661.020874 2049.000000,706.041809 2049.000000,751.531372 
z"/>
<path fill="#000000" opacity="1.000000" stroke="none" 
	d="
M53.037132,727.660522 
	C44.508141,736.450928 35.406048,744.049255 23.828941,747.537903 
	C16.709967,749.683105 9.205699,750.549744 1.437215,751.995239 
	C1.000000,706.979126 1.000000,661.958191 1.000000,616.468628 
	C30.213877,615.370850 55.023048,633.826843 64.629967,659.750854 
	C73.176117,682.812439 70.093536,704.971008 54.737942,724.838562 
	C54.140476,725.611572 53.707447,726.511658 53.037132,727.660522 
z"/>
<path fill="#000000" opacity="1.000000" stroke="none" 
	d="
M161.468658,2049.000000 
	C160.410889,2029.080933 168.011917,2012.451172 182.426956,1999.225952 
	C207.121002,1976.570190 242.499512,1974.326050 269.524414,1995.079956 
	C285.155731,2007.084229 294.509827,2022.837524 296.051697,2042.817017 
	C296.189880,2044.608032 296.675171,2046.372314 296.999634,2048.574463 
	C251.979111,2049.000000 206.958206,2049.000000 161.468658,2049.000000 
z"/>
<path fill="#000000" opacity="1.000000" stroke="none" 
	d="
M1753.468628,2049.000000 
	C1754.311768,2029.911865 1760.230225,2012.789673 1774.865967,1999.690796 
	C1790.935547,1985.308472 1809.453613,1978.642944 1831.295410,1981.802979 
	C1846.485229,1984.000732 1859.273560,1990.723999 1869.742676,2001.439819 
	C1882.268311,2014.260376 1889.607300,2029.634888 1889.000000,2048.540527 
	C1843.979126,2049.000000 1798.958130,2049.000000 1753.468628,2049.000000 
z"/>
<path fill="#000000" opacity="1.000000" stroke="none" 
	d="
M1526.468628,2049.000000 
	C1525.545166,2011.894043 1555.907959,1982.367920 1590.982178,1981.033813 
	C1631.043945,1979.510010 1661.183350,2011.880859 1662.000732,2048.557617 
	C1616.979126,2049.000000 1571.958130,2049.000000 1526.468628,2049.000000 
z"/>
<path fill="#000000" opacity="1.000000" stroke="none" 
	d="
M1.000000,161.468658 
	C20.899977,160.322495 37.354282,168.113739 50.672264,182.328644 
	C64.419945,197.002213 71.011505,214.872665 68.808861,234.861343 
	C65.306435,266.645447 42.833321,289.994324 11.649282,295.901855 
	C8.430367,296.511627 5.121230,296.645172 1.426978,296.999847 
	C1.000000,251.979111 1.000000,206.958206 1.000000,161.468658 
z"/>
<path fill="#000000" opacity="1.000000" stroke="none" 
	d="
M1661.531372,1.000000 
	C1661.917480,37.604763 1631.124756,70.653084 1590.749878,68.975220 
	C1556.221191,67.540291 1526.185303,38.434967 1526.000244,1.452840 
	C1571.020874,1.000000 1616.041870,1.000000 1661.531372,1.000000 
z"/>
<path fill="#000000" opacity="1.000000" stroke="none" 
	d="
M1433.531372,1.000000 
	C1434.838379,33.694080 1411.121948,61.125462 1380.252930,67.652954 
	C1344.816650,75.146233 1310.057129,53.718807 1300.312988,17.390684 
	C1298.966187,12.369469 1298.744019,7.046577 1298.000732,1.431669 
	C1343.020874,1.000000 1388.041870,1.000000 1433.531372,1.000000 
z"/>
<path fill="#000000" opacity="1.000000" stroke="none" 
	d="
M1888.531372,1.000000 
	C1889.680542,21.099869 1881.748779,37.751152 1867.302002,51.001270 
	C1842.763672,73.506973 1807.090942,75.566078 1780.362061,54.829853 
	C1764.808594,42.763298 1755.480835,27.095253 1753.962036,7.162786 
	C1753.826050,5.379158 1753.331055,3.622893 1753.001465,1.426960 
	C1798.020874,1.000000 1843.041870,1.000000 1888.531372,1.000000 
z"/>
<path fill="#000000" opacity="1.000000" stroke="none" 
	d="
M2049.000000,296.531342 
	C2029.532959,295.818878 2012.467285,289.195740 1999.104004,274.554077 
	C1989.907227,264.477509 1984.179199,252.730362 1981.898315,239.132507 
	C1979.146851,222.728485 1982.349854,207.592606 1990.846558,193.629532 
	C2001.166748,176.670364 2016.137573,165.864868 2035.783936,162.056030 
	C2039.799927,161.277435 2043.977539,161.331726 2048.540283,161.001038 
	C2049.000000,206.020889 2049.000000,251.041794 2049.000000,296.531342 
z"/>
<path fill="#000000" opacity="1.000000" stroke="none" 
	d="
M2004.452026,1418.012451 
	C1995.189331,1408.586792 1987.761597,1398.328003 1983.819458,1385.755737 
	C1972.112183,1348.417480 1996.969604,1307.025513 2035.495728,1299.967041 
	C2039.689209,1299.198730 2043.923218,1298.651123 2048.569336,1298.000610 
	C2049.000000,1343.020874 2049.000000,1388.041870 2049.000000,1433.531372 
	C2032.045410,1434.842163 2017.778564,1428.228149 2004.452026,1418.012451 
z"/>
<path fill="#000000" opacity="1.000000" stroke="none" 
	d="
M523.531372,1.000000 
	C524.010010,17.976421 518.349365,32.649403 507.092743,45.492012 
	C492.027130,62.680260 472.987671,70.667114 450.667816,68.754852 
	C427.146606,66.739662 409.051300,54.884079 397.034515,34.128654 
	C391.221130,24.087723 388.422791,13.359532 388.000427,1.443594 
	C433.020905,1.000000 478.041779,1.000000 523.531372,1.000000 
z"/>
<path fill="#000000" opacity="1.000000" stroke="none" 
	d="
M2049.000000,1206.531372 
	C2011.388184,1206.371826 1982.050659,1176.545532 1981.012695,1140.619751 
	C1979.886108,1101.623535 2012.460449,1070.689209 2048.543945,1071.001099 
	C2049.000000,1116.020874 2049.000000,1161.041870 2049.000000,1206.531372 
z"/>
<path fill="#000000" opacity="1.000000" stroke="none" 
	d="
M1.000000,1753.468628 
	C20.935642,1754.167847 38.494232,1760.949829 51.664661,1776.334961 
	C65.135262,1792.070923 71.304581,1810.224976 68.218002,1831.309326 
	C66.019669,1846.326050 59.300560,1858.933105 48.910915,1869.356689 
	C36.119514,1882.189819 20.561623,1889.586792 1.459592,1889.006348 
	C1.000000,1843.979126 1.000000,1798.958130 1.000000,1753.468628 
z"/>
<path fill="#000000" opacity="1.000000" stroke="none" 
	d="
M1.000000,1526.468628 
	C17.894127,1525.914673 32.557060,1531.622925 45.283688,1542.705200 
	C58.208862,1553.960205 65.827385,1567.799072 68.118149,1584.943726 
	C70.981606,1606.374756 64.823006,1624.587402 50.256516,1640.163696 
	C46.990337,1643.656128 43.169216,1646.629517 39.309593,1650.024170 
	C27.800688,1657.793335 15.348371,1661.481689 1.443690,1661.996216 
	C1.000000,1616.979126 1.000000,1571.958130 1.000000,1526.468628 
z"/>
<path fill="#000000" opacity="1.000000" stroke="none" 
	d="
M296.531342,1.000000 
	C295.424591,34.136791 274.535889,60.132988 243.035187,67.415436 
	C222.559708,72.149040 203.820984,67.441299 187.313309,54.702785 
	C170.128662,41.441853 160.882858,23.942905 160.995819,1.459684 
	C206.020889,1.000000 251.041794,1.000000 296.531342,1.000000 
z"/>
<path fill="#000000" opacity="1.000000" stroke="none" 
	d="
M616.468628,2049.000000 
	C615.333679,2015.737671 639.456604,1988.667725 669.924011,1982.284668 
	C705.140869,1974.906738 740.379517,1996.899292 749.656372,2032.572876 
	C750.969666,2037.623291 751.245544,2042.943359 752.000854,2048.569336 
	C706.979126,2049.000000 661.958191,2049.000000 616.468628,2049.000000 
z"/>
<path fill="#000000" opacity="1.000000" stroke="none" 
	d="
M843.468628,2049.000000 
	C843.455872,2012.278809 873.591431,1979.858032 913.450073,1981.031250 
	C948.905396,1982.074951 979.015808,2011.687866 979.001221,2048.543945 
	C933.979126,2049.000000 888.958191,2049.000000 843.468628,2049.000000 
z"/>
<path fill="#000000" opacity="1.000000" stroke="none" 
	d="
M40.655106,400.964722 
	C64.661667,419.188629 73.820885,447.756439 66.396957,474.387573 
	C57.932858,504.750092 29.098948,524.244385 1.452735,523.998779 
	C1.000000,478.979095 1.000000,433.958221 1.000000,388.468658 
	C15.494775,388.024719 28.527674,392.541229 40.655106,400.964722 
z"/>
<path fill="#000000" opacity="1.000000" stroke="none" 
	d="
M1206.531372,1.000000 
	C1206.508179,37.362133 1176.731689,70.396744 1136.010254,68.957184 
	C1100.950317,67.717781 1071.005493,38.244801 1071.000488,1.456085 
	C1116.020874,1.000000 1161.041870,1.000000 1206.531372,1.000000 
z"/>
<path fill="#000000" opacity="1.000000" stroke="none" 
	d="
M51.595123,1320.885254 
	C63.702271,1335.492554 70.320686,1351.868164 68.895271,1370.710327 
	C67.821815,1384.900024 62.666592,1397.616699 53.683453,1408.946533 
	C44.759300,1420.202026 33.384151,1427.465332 19.897148,1431.397461 
	C14.140684,1433.075562 7.925807,1433.181274 1.459620,1434.000732 
	C1.000000,1388.979126 1.000000,1343.958130 1.000000,1298.468628 
	C20.741865,1298.996948 37.782848,1305.970703 51.595123,1320.885254 
z"/>
<path fill="#000000" opacity="1.000000" stroke="none" 
	d="
M751.531372,1.000000 
	C750.387085,26.647013 739.575439,46.656921 716.958679,60.008492 
	C692.576782,74.402100 661.182495,70.960083 640.314758,52.940712 
	C624.614868,39.383774 616.333374,22.629967 616.000183,1.459164 
	C661.020874,1.000000 706.041809,1.000000 751.531372,1.000000 
z"/>
<path fill="#000000" opacity="1.000000" stroke="none" 
	d="
M1.000000,1071.468628 
	C17.575006,1070.737427 31.868565,1076.455811 44.523949,1087.037476 
	C62.297207,1101.898315 70.359406,1121.140015 68.778366,1143.806152 
	C67.401527,1163.544922 58.433418,1179.779907 42.446140,1192.202637 
	C30.356981,1201.596191 16.892628,1206.147339 1.442232,1207.000000 
	C1.000000,1161.979126 1.000000,1116.958130 1.000000,1071.468628 
z"/>
<path fill="#000000" opacity="1.000000" stroke="none" 
	d="
M2049.000000,978.531372 
	C2029.550781,979.265503 2013.516846,971.414246 1999.418945,958.115295 
	C1995.431396,952.379395 1991.108154,947.101013 1988.161987,941.141785 
	C1978.474731,921.547424 1977.982300,901.324097 1987.820679,881.860962 
	C1998.707520,860.324036 2016.323120,847.066895 2040.803589,843.974426 
	C2043.246338,843.665833 2045.684814,843.324219 2048.562500,842.998962 
	C2049.000000,888.020874 2049.000000,933.041809 2049.000000,978.531372 
z"/>
<path fill="#000000" opacity="1.000000" stroke="none" 
	d="
M1071.468628,2049.000000 
	C1070.752319,2011.672974 1100.507935,1982.996826 1134.647461,1981.113770 
	C1175.857788,1978.840698 1205.724976,2011.350464 1207.000732,2048.562988 
	C1161.979126,2049.000000 1116.958130,2049.000000 1071.468628,2049.000000 
z"/>
<path fill="#000000" opacity="1.000000" stroke="none" 
	d="
M978.531372,1.000000 
	C979.378357,38.293831 949.188110,67.143700 915.459167,68.896324 
	C873.941772,71.053658 844.249451,38.496922 843.000610,1.438200 
	C888.020874,1.000000 933.041809,1.000000 978.531372,1.000000 
z"/>
<path fill="#000000" opacity="1.000000" stroke="none" 
	d="
M1.000000,843.468628 
	C26.689577,844.406433 46.584087,855.396423 59.934181,877.870605 
	C74.578651,902.523987 70.842949,933.905396 53.137970,954.443970 
	C39.614834,970.131348 22.824162,978.819397 1.456049,979.002136 
	C1.000000,933.979126 1.000000,888.958191 1.000000,843.468628 
z"/>
<path fill="#000000" opacity="1.000000" stroke="none" 
	d="
M1298.468628,2049.000000 
	C1298.803223,2011.920288 1328.827881,1979.208862 1369.492188,1981.111084 
	C1404.213989,1982.735474 1433.566528,2010.727661 1434.000244,2048.543945 
	C1388.979126,2049.000000 1343.958130,2049.000000 1298.468628,2049.000000 
z"/>
<path fill="#000000" opacity="1.000000" stroke="none" 
	d="
M1981.468628,2049.000000 
	C1981.176514,2011.472900 2011.458740,1981.622192 2048.552246,1980.999268 
	C2049.000000,2003.593506 2049.000000,2026.187012 2049.000000,2049.000000 
	C2026.646240,2049.000000 2004.291748,2049.000000 1981.468628,2049.000000 
z"/>
<path fill="#000000" opacity="1.000000" stroke="none" 
	d="
M2049.000000,68.531342 
	C2011.404419,68.820671 1981.602905,38.518608 1981.000244,1.447947 
	C2003.593506,1.000000 2026.187012,1.000000 2049.000000,1.000000 
	C2049.000000,23.353748 2049.000000,45.708218 2049.000000,68.531342 
z"/>
<path fill="#000000" opacity="1.000000" stroke="none" 
	d="
M1.000000,1981.468628 
	C38.497288,1981.057739 68.480171,2011.866211 69.001060,2048.552246 
	C46.406475,2049.000000 23.812952,2049.000000 1.000000,2049.000000 
	C1.000000,2026.646240 1.000000,2004.291748 1.000000,1981.468628 
z"/>
<path fill="#000000" opacity="1.000000" stroke="none" 
	d="
M68.531342,1.000000 
	C68.916901,38.526733 38.156567,68.497314 1.447952,68.999405 
	C1.000000,46.406483 1.000000,23.812967 1.000000,1.000000 
	C23.353748,1.000000 45.708218,1.000000 68.531342,1.000000 
z"/>
<path fill="#FFFFFF" opacity="1.000000" stroke="none" 
	d="
M317.045593,1455.407349 
	C320.666382,1438.333984 324.395386,1421.684448 327.953094,1404.998413 
	C333.787903,1377.632446 339.515045,1350.243652 345.259705,1322.858643 
	C345.389008,1322.242310 345.184631,1321.556030 345.126404,1320.470947 
	C347.138062,1311.712646 349.339966,1303.424438 351.139221,1295.049927 
	C354.068787,1281.414062 356.714508,1267.717529 359.517792,1254.054321 
	C363.342926,1235.410522 367.148346,1216.762329 371.065735,1198.137817 
	C374.413330,1182.222534 377.956940,1166.348633 381.322327,1150.436890 
	C384.952576,1133.273193 388.372040,1116.064453 392.080383,1098.917847 
	C394.973236,1085.541992 398.167664,1072.231079 401.210083,1058.475830 
	C405.461731,1038.437500 409.810852,1018.831787 413.986877,999.189209 
	C429.538116,926.042358 445.051666,852.887451 460.532959,779.725830 
	C463.856689,764.018555 466.981415,748.269165 470.215240,732.542725 
	C470.473724,731.285828 470.868286,730.056824 471.127289,728.407104 
	C474.812469,710.606262 478.564606,693.212036 482.329224,675.820496 
	C484.991730,663.520569 487.704041,651.231384 490.334381,638.924622 
	C493.335663,624.882263 496.313019,610.834595 499.222351,596.772949 
	C502.021576,583.243774 504.692169,569.688110 507.470581,556.154602 
	C511.305084,537.476929 515.147156,518.800659 519.062073,500.139679 
	C522.375793,484.344177 525.758850,468.562897 529.182312,452.790771 
	C532.801575,436.116730 536.504883,419.460907 540.032715,402.399078 
	C543.257080,387.313293 546.731506,372.649963 549.954224,357.931519 
	C553.759277,340.553192 557.408569,323.139832 560.964050,305.708740 
	C561.518860,302.988831 562.684692,302.004211 565.312927,302.309509 
	C566.463562,302.443146 567.642700,302.331665 568.808899,302.331665 
	C862.524231,302.331665 1156.239624,302.331665 1449.954956,302.331665 
	C1452.108032,302.331665 1454.261230,302.331665 1456.979004,302.331665 
	C1450.242188,334.208618 1443.587891,365.695526 1436.969971,397.591248 
	C1433.340576,414.708618 1429.601318,431.401489 1426.023193,448.128845 
	C1417.295288,488.929779 1408.642090,529.746582 1399.888184,570.888672 
	C1192.307007,570.888672 984.810547,570.888672 777.059998,570.888672 
	C775.148987,579.773926 773.301147,588.365356 771.432861,597.377991 
	C762.253723,640.473694 753.095642,683.148376 743.933716,725.822144 
	C743.689819,726.958252 743.403870,728.085266 743.166077,729.608765 
	C741.790405,737.317078 740.542847,744.667664 738.939148,751.939758 
	C737.263611,759.537598 735.103638,767.028320 733.407349,774.622131 
	C730.182129,789.060547 727.130066,803.537781 724.037903,818.005676 
	C723.909546,818.606384 724.102051,819.275696 724.173157,820.328308 
	C1064.372803,820.328308 1404.435913,820.328308 1745.657593,820.328308 
	C1734.376953,866.404480 1723.258911,911.816833 1712.163574,957.615601 
	C1709.153442,970.083496 1706.313599,982.218872 1702.961914,994.211182 
	C1702.040771,997.506958 1700.182373,1000.982910 1697.754272,1003.351196 
	C1623.618896,1075.659546 1549.358643,1147.839844 1474.989014,1220.337402 
	C1456.543945,1238.311279 1438.181396,1255.940063 1419.920898,1273.673950 
	C1380.874146,1311.594727 1341.885620,1349.575684 1302.860718,1387.519165 
	C1292.994263,1397.112427 1283.081055,1406.657715 1273.067627,1416.532471 
	C1257.404785,1431.882446 1241.849487,1446.910400 1226.325684,1461.970703 
	C1204.103271,1483.529663 1181.906982,1505.115845 1159.685181,1526.675537 
	C1158.502075,1527.823608 1157.186157,1528.834961 1154.953247,1530.748901 
	C1161.680908,1531.979858 1167.183350,1533.061890 1172.712402,1533.984619 
	C1191.389648,1537.101929 1210.051025,1540.328247 1228.768188,1543.186890 
	C1241.311401,1545.102783 1253.897827,1547.078979 1266.538818,1547.930664 
	C1284.593750,1549.146851 1302.753906,1550.395386 1320.801025,1549.743896 
	C1344.655762,1548.882935 1368.577637,1547.196289 1392.228760,1544.048218 
	C1422.919189,1539.963135 1453.538696,1534.916626 1483.884766,1528.780396 
	C1522.814331,1520.908569 1561.165527,1510.469971 1598.763306,1497.576660 
	C1621.262329,1489.861084 1643.463257,1481.276733 1665.807861,1473.109253 
	C1666.849609,1472.728394 1667.986206,1472.607544 1669.735229,1472.220337 
	C1657.115112,1531.518433 1644.591553,1590.362671 1632.104004,1649.604126 
	C1628.427246,1667.057617 1624.628418,1684.095825 1621.072510,1701.184570 
	C1620.331665,1704.744385 1618.872192,1706.817505 1615.422363,1708.439819 
	C1565.838135,1731.755737 1515.030029,1751.618774 1461.604370,1764.400513 
	C1414.048706,1775.777832 1365.762817,1779.850952 1316.988647,1780.450073 
	C1272.816040,1780.992432 1229.337280,1775.357910 1185.852783,1768.529785 
	C1145.422974,1762.181396 1104.965088,1755.264404 1064.248169,1751.682617 
	C1012.992859,1747.173950 961.718018,1749.578735 911.378967,1761.987549 
	C892.715576,1766.588135 874.912292,1773.374756 858.197449,1784.268066 
	C833.315735,1740.225952 808.491272,1696.285034 783.381042,1652.157959 
	C775.230408,1637.759155 767.365601,1623.546753 759.153625,1608.707153 
	C832.346558,1536.084961 905.619080,1463.383667 979.332031,1390.252075 
	C987.438721,1382.500244 995.213440,1375.288696 1002.753296,1367.839233 
	C1044.084106,1327.003906 1085.375244,1286.128418 1126.641846,1245.228271 
	C1144.480835,1227.547729 1162.228149,1209.774658 1180.331421,1191.923828 
	C1227.788696,1145.116943 1274.931641,1098.429688 1322.674316,1051.148438 
	C1105.799316,1051.148438 890.032043,1051.148438 674.083740,1051.148438 
	C672.225464,1059.895874 670.395935,1068.506836 668.566772,1077.117798 
	C660.583679,1114.699341 652.600769,1152.280884 644.351318,1190.144409 
	C643.961853,1191.583374 643.942322,1192.762573 643.700684,1193.894287 
	C632.903992,1244.461304 622.056702,1295.017578 611.292969,1345.591553 
	C608.076843,1360.702759 605.088013,1375.862549 601.994995,1391.000000 
	C598.326050,1407.712891 594.576477,1424.408447 591.002502,1441.141602 
	C577.525635,1504.239136 564.106323,1567.348877 550.653992,1630.451538 
	C550.587952,1630.761353 550.358643,1631.036377 550.039185,1631.644165 
	C460.302307,1631.644165 370.404022,1631.644165 280.132172,1631.644165 
	C281.590546,1623.775635 282.958069,1615.871582 284.533356,1608.009155 
	C287.644989,1592.478760 290.797699,1576.955688 294.072327,1561.458984 
	C297.138458,1546.948975 300.469818,1532.494995 303.529388,1517.983643 
	C307.450165,1499.387939 311.193146,1480.755005 315.078796,1462.151855 
	C315.529419,1459.994507 316.400665,1457.924927 317.045593,1455.407349 
z"/>
<path fill="#A00000" opacity="1.000000" stroke="none" 
	d="
M602.379395,1390.940796 
	C605.088013,1375.862549 608.076843,1360.702759 611.292969,1345.591553 
	C622.056702,1295.017578 632.903992,1244.461304 643.700684,1193.894287 
	C643.942322,1192.762573 643.961853,1191.583374 644.843750,1190.178101 
	C648.100708,1189.953125 650.598999,1189.997070 653.097229,1189.997192 
	C825.834595,1190.000366 998.571960,1190.000000 1171.309326,1190.000244 
	C1172.808472,1190.000244 1174.370850,1189.738525 1175.789551,1190.077148 
	C1177.270630,1190.430786 1178.613647,1191.363770 1180.017090,1192.043457 
	C1162.228149,1209.774658 1144.480835,1227.547729 1126.641846,1245.228271 
	C1085.375244,1286.128418 1044.084106,1327.003906 1002.753296,1367.839233 
	C995.213440,1375.288696 987.438721,1382.500244 979.462280,1389.938721 
	C977.045105,1389.703735 974.938110,1389.044678 972.830872,1389.043823 
	C852.360413,1388.994507 731.889893,1388.986816 611.419495,1389.078613 
	C608.533752,1389.080811 605.648987,1390.254395 602.379395,1390.940796 
z"/>
<path fill="#A50000" opacity="1.000000" stroke="none" 
	d="
M1180.331421,1191.923828 
	C1178.613647,1191.363770 1177.270630,1190.430786 1175.789551,1190.077148 
	C1174.370850,1189.738525 1172.808472,1190.000244 1171.309326,1190.000244 
	C998.571960,1190.000000 825.834595,1190.000366 653.097229,1189.997192 
	C650.598999,1189.997070 648.100708,1189.953125 645.110107,1189.896118 
	C652.600769,1152.280884 660.583679,1114.699341 668.566772,1077.117798 
	C670.395935,1068.506836 672.225464,1059.895874 674.083740,1051.148438 
	C890.032043,1051.148438 1105.799316,1051.148438 1322.674316,1051.148438 
	C1274.931641,1098.429688 1227.788696,1145.116943 1180.331421,1191.923828 
z"/>
</svg>