<svg version="1.1" id="Layer_1" xmlns="http://www.w3.org/2000/svg" xmlns:xlink="http://www.w3.org/1999/xlink" x="0px" y="0px"
	 width="100%" viewBox="0 0 2000 1950" enable-background="new 0 0 2000 1950" xml:space="preserve">
<path fill="#49021F" opacity="1.000000" stroke="none" 
	d="
M0.999995,1635.000000 
	C1.000000,1195.967285 1.000000,756.934509 1.342372,317.291626 
	C2.094034,315.809814 2.722473,314.975800 2.879426,314.060883 
	C4.926810,302.126587 6.569335,290.112488 8.967916,278.250732 
	C16.289087,242.045227 29.913994,208.122482 48.469170,176.358429 
	C69.164597,140.930573 95.217293,109.798973 126.897797,83.470192 
	C147.066498,66.708542 168.632523,52.136200 191.890198,40.056854 
	C230.082291,20.221018 270.605682,8.001302 313.317810,2.906011 
	C314.602692,2.752731 315.775146,1.656559 317.000000,0.999997 
	C772.699402,1.000000 1228.398804,1.000000 1684.708252,1.342444 
	C1689.988647,2.506663 1694.646851,3.404569 1699.330811,4.138383 
	C1745.357300,11.349195 1788.611450,26.366360 1828.628906,50.330486 
	C1859.930908,69.075378 1887.841553,91.938263 1911.987549,119.389214 
	C1927.520996,137.048737 1941.309814,155.885345 1953.208862,176.192062 
	C1978.038574,218.565735 1993.085083,264.149231 1999.063965,312.823181 
	C1999.241943,314.272858 2000.334106,315.610260 2001.000000,317.000000 
	C2001.000000,756.032715 2001.000000,1195.065430 2000.656250,1634.704590 
	C1999.871704,1636.681396 1999.267090,1638.022583 1999.015747,1639.426880 
	C1996.736206,1652.169189 1995.021240,1665.035522 1992.186279,1677.651123 
	C1984.324341,1712.638062 1971.040283,1745.515259 1952.865479,1776.462036 
	C1931.508423,1812.827637 1904.640259,1844.472534 1872.046387,1871.170898 
	C1847.221924,1891.505127 1820.143433,1908.258301 1790.701050,1921.197754 
	C1760.065674,1934.661499 1728.298340,1943.894165 1695.087524,1948.178833 
	C1691.660767,1948.620972 1688.359497,1950.036255 1685.000000,1951.000000 
	C1229.300537,1951.000000 773.601196,1951.000000 317.295410,1950.656250 
	C315.485016,1949.879761 314.310883,1949.201782 313.072540,1949.050903 
	C290.238495,1946.269653 267.835938,1941.511475 245.933212,1934.466431 
	C210.659866,1923.120972 177.992920,1906.592407 147.936218,1884.933838 
	C120.389313,1865.083618 96.113319,1841.855957 75.276772,1814.988037 
	C57.136120,1791.596069 41.999908,1766.470947 30.152267,1739.353638 
	C17.030310,1709.319824 8.131178,1678.112793 3.861690,1645.586426 
	C3.390174,1641.994263 1.976634,1638.525879 0.999995,1635.000000 
M1092.577515,722.070618 
	C1074.628784,729.996399 1055.977539,736.644592 1038.850586,746.064514 
	C955.361267,791.983765 898.985474,860.536072 872.152832,952.140137 
	C851.589966,1022.339905 854.321533,1093.239380 871.993896,1163.508301 
	C890.652710,1237.699951 932.948364,1295.901245 997.412354,1336.951904 
	C1052.447998,1371.998657 1113.934082,1387.816650 1178.566040,1391.859741 
	C1218.076172,1394.331055 1257.489136,1391.904541 1296.769409,1387.135254 
	C1356.092896,1379.932251 1413.583374,1365.659180 1468.916870,1342.930542 
	C1480.257324,1338.272339 1482.233521,1334.616089 1481.606812,1322.355835 
	C1479.855103,1288.089111 1477.153076,1253.807007 1477.103394,1219.527710 
	C1476.727051,960.383484 1476.897705,701.238525 1476.897461,442.093842 
	C1476.897461,440.260651 1476.948608,438.425446 1476.880615,436.594696 
	C1476.677979,431.141235 1473.883057,428.513733 1468.335083,428.515137 
	C1413.506470,428.528778 1358.677979,428.543610 1303.849365,428.564148 
	C1302.017212,428.564850 1300.182373,428.580627 1298.353271,428.674286 
	C1293.984253,428.897949 1291.711426,431.438660 1291.166748,435.577942 
	C1290.907593,437.547791 1291.005249,439.569519 1291.005005,441.567749 
	C1290.998779,525.893921 1290.999756,610.220154 1290.999634,694.546326 
	C1290.999634,696.612488 1290.999512,698.678650 1290.999512,701.057983 
	C1280.470703,700.325134 1270.833496,699.012024 1261.211426,699.114258 
	C1239.074829,699.349548 1216.894409,699.544434 1194.824707,701.085510 
	C1160.144531,703.507385 1126.277344,710.598328 1092.577515,722.070618 
M541.895691,1236.500000 
	C541.896973,1280.330322 541.879089,1324.160767 541.912170,1367.991089 
	C541.921204,1379.949707 544.763977,1382.744019 556.648926,1382.745972 
	C607.479065,1382.754395 658.309143,1382.750122 709.139282,1382.749878 
	C725.500122,1382.749756 727.749084,1380.473022 727.749146,1363.877197 
	C727.750183,1081.561768 727.750000,799.246338 727.747925,516.930908 
	C727.747925,515.097961 727.864197,513.250000 727.677673,511.434601 
	C726.899414,503.861694 722.880249,500.096375 715.767273,500.097931 
	C663.104004,500.109344 610.440735,500.114380 557.777466,500.124176 
	C555.944458,500.124512 554.103516,500.049225 552.279907,500.188568 
	C545.256775,500.725098 542.129883,504.016998 541.923828,511.046326 
	C541.855530,513.377686 541.896423,515.712402 541.896423,518.045532 
	C541.895630,757.197021 541.895691,996.348511 541.895691,1236.500000 
z"/>
<path fill="#000000" opacity="1.000000" stroke="none" 
	d="
M1685.468628,1951.000000 
	C1688.359497,1950.036255 1691.660767,1948.620972 1695.087524,1948.178833 
	C1728.298340,1943.894165 1760.065674,1934.661499 1790.701050,1921.197754 
	C1820.143433,1908.258301 1847.221924,1891.505127 1872.046387,1871.170898 
	C1904.640259,1844.472534 1931.508423,1812.827637 1952.865479,1776.462036 
	C1971.040283,1745.515259 1984.324341,1712.638062 1992.186279,1677.651123 
	C1995.021240,1665.035522 1996.736206,1652.169189 1999.015747,1639.426880 
	C1999.267090,1638.022583 1999.871704,1636.681396 2000.656250,1635.155518 
	C2001.000000,1740.260376 2001.000000,1845.520874 2001.000000,1951.000000 
	C1895.979126,1951.000000 1790.958252,1951.000000 1685.468628,1951.000000 
z"/>
<path fill="#000000" opacity="1.000000" stroke="none" 
	d="
M0.999995,1635.468628 
	C1.976634,1638.525879 3.390174,1641.994263 3.861690,1645.586426 
	C8.131178,1678.112793 17.030310,1709.319824 30.152267,1739.353638 
	C41.999908,1766.470947 57.136120,1791.596069 75.276772,1814.988037 
	C96.113319,1841.855957 120.389313,1865.083618 147.936218,1884.933838 
	C177.992920,1906.592407 210.659866,1923.120972 245.933212,1934.466431 
	C267.835938,1941.511475 290.238495,1946.269653 313.072540,1949.050903 
	C314.310883,1949.201782 315.485016,1949.879761 316.844543,1950.656250 
	C211.739594,1951.000000 106.479179,1951.000000 1.000000,1951.000000 
	C1.000000,1845.979126 1.000000,1740.958252 0.999995,1635.468628 
z"/>
<path fill="#000000" opacity="1.000000" stroke="none" 
	d="
M316.531342,0.999997 
	C315.775146,1.656559 314.602692,2.752731 313.317810,2.906011 
	C270.605682,8.001302 230.082291,20.221018 191.890198,40.056854 
	C168.632523,52.136200 147.066498,66.708542 126.897797,83.470192 
	C95.217293,109.798973 69.164597,140.930573 48.469170,176.358429 
	C29.913994,208.122482 16.289087,242.045227 8.967916,278.250732 
	C6.569335,290.112488 4.926810,302.126587 2.879426,314.060883 
	C2.722473,314.975800 2.094034,315.809814 1.342372,316.840698 
	C1.000000,211.739609 1.000000,106.479202 1.000000,1.000000 
	C106.020790,1.000000 211.041733,1.000000 316.531342,0.999997 
z"/>
<path fill="#000000" opacity="1.000000" stroke="none" 
	d="
M2001.000000,316.531342 
	C2000.334106,315.610260 1999.241943,314.272858 1999.063965,312.823181 
	C1993.085083,264.149231 1978.038574,218.565735 1953.208862,176.192062 
	C1941.309814,155.885345 1927.520996,137.048737 1911.987549,119.389214 
	C1887.841553,91.938263 1859.930908,69.075378 1828.628906,50.330486 
	C1788.611450,26.366360 1745.357300,11.349195 1699.330811,4.138383 
	C1694.646851,3.404569 1689.988647,2.506663 1685.159180,1.342444 
	C1790.260376,1.000000 1895.520752,1.000000 2001.000000,1.000000 
	C2001.000000,106.020790 2001.000000,211.041733 2001.000000,316.531342 
z"/>
<path fill="#FF3366" opacity="1.000000" stroke="none" 
	d="
M1092.953247,721.954712 
	C1126.277344,710.598328 1160.144531,703.507385 1194.824707,701.085510 
	C1216.894409,699.544434 1239.074829,699.349548 1261.211426,699.114258 
	C1270.833496,699.012024 1280.470703,700.325134 1290.999512,701.057983 
	C1290.999512,698.678650 1290.999634,696.612488 1290.999634,694.546326 
	C1290.999756,610.220154 1290.998779,525.893921 1291.005005,441.567749 
	C1291.005249,439.569519 1290.907593,437.547791 1291.166748,435.577942 
	C1291.711426,431.438660 1293.984253,428.897949 1298.353271,428.674286 
	C1300.182373,428.580627 1302.017212,428.564850 1303.849365,428.564148 
	C1358.677979,428.543610 1413.506470,428.528778 1468.335083,428.515137 
	C1473.883057,428.513733 1476.677979,431.141235 1476.880615,436.594696 
	C1476.948608,438.425446 1476.897461,440.260651 1476.897461,442.093842 
	C1476.897705,701.238525 1476.727051,960.383484 1477.103394,1219.527710 
	C1477.153076,1253.807007 1479.855103,1288.089111 1481.606812,1322.355835 
	C1482.233521,1334.616089 1480.257324,1338.272339 1468.916870,1342.930542 
	C1413.583374,1365.659180 1356.092896,1379.932251 1296.769409,1387.135254 
	C1257.489136,1391.904541 1218.076172,1394.331055 1178.566040,1391.859741 
	C1113.934082,1387.816650 1052.447998,1371.998657 997.412354,1336.951904 
	C932.948364,1295.901245 890.652710,1237.699951 871.993896,1163.508301 
	C854.321533,1093.239380 851.589966,1022.339905 872.152832,952.140137 
	C898.985474,860.536072 955.361267,791.983765 1038.850586,746.064514 
	C1055.977539,736.644592 1074.628784,729.996399 1092.953247,721.954712 
M1239.983765,1231.479370 
	C1243.311768,1231.303833 1246.648071,1231.224487 1249.966187,1230.935547 
	C1261.874878,1229.898315 1273.779419,1228.809692 1285.681519,1227.698975 
	C1289.956665,1227.299927 1291.106201,1224.958984 1291.101562,1220.665039 
	C1290.974609,1102.013062 1290.999878,983.361023 1290.999878,864.708923 
	C1290.999878,862.932007 1290.999878,861.155090 1290.999878,858.708435 
	C1280.697144,857.284363 1271.022949,855.567566 1261.273438,854.664429 
	C1215.292725,850.404724 1171.880249,858.683350 1132.448364,883.304932 
	C1095.810425,906.181824 1067.853271,936.735779 1056.696655,979.467102 
	C1042.893066,1032.336792 1044.881958,1084.859863 1065.741699,1135.784180 
	C1081.695190,1174.730469 1108.920654,1203.046021 1148.766602,1218.135010 
	C1177.843628,1229.146118 1208.054443,1233.117798 1239.983765,1231.479370 
z"/>
<path fill="#FF3366" opacity="1.000000" stroke="none" 
	d="
M541.895691,1236.000000 
	C541.895691,996.348511 541.895630,757.197021 541.896423,518.045532 
	C541.896423,515.712402 541.855530,513.377686 541.923828,511.046326 
	C542.129883,504.016998 545.256775,500.725098 552.279907,500.188568 
	C554.103516,500.049225 555.944458,500.124512 557.777466,500.124176 
	C610.440735,500.114380 663.104004,500.109344 715.767273,500.097931 
	C722.880249,500.096375 726.899414,503.861694 727.677673,511.434601 
	C727.864197,513.250000 727.747925,515.097961 727.747925,516.930908 
	C727.750000,799.246338 727.750183,1081.561768 727.749146,1363.877197 
	C727.749084,1380.473022 725.500122,1382.749756 709.139282,1382.749878 
	C658.309143,1382.750122 607.479065,1382.754395 556.648926,1382.745972 
	C544.763977,1382.744019 541.921204,1379.949707 541.912170,1367.991089 
	C541.879089,1324.160767 541.896973,1280.330322 541.895691,1236.000000 
z"/>
<path fill="#49021F" opacity="1.000000" stroke="none" 
	d="
M1239.514648,1231.506836 
	C1208.054443,1233.117798 1177.843628,1229.146118 1148.766602,1218.135010 
	C1108.920654,1203.046021 1081.695190,1174.730469 1065.741699,1135.784180 
	C1044.881958,1084.859863 1042.893066,1032.336792 1056.696655,979.467102 
	C1067.853271,936.735779 1095.810425,906.181824 1132.448364,883.304932 
	C1171.880249,858.683350 1215.292725,850.404724 1261.273438,854.664429 
	C1271.022949,855.567566 1280.697144,857.284363 1290.999878,858.708435 
	C1290.999878,861.155090 1290.999878,862.932007 1290.999878,864.708923 
	C1290.999878,983.361023 1290.974609,1102.013062 1291.101562,1220.665039 
	C1291.106201,1224.958984 1289.956665,1227.299927 1285.681519,1227.698975 
	C1273.779419,1228.809692 1261.874878,1229.898315 1249.966187,1230.935547 
	C1246.648071,1231.224487 1243.311768,1231.303833 1239.514648,1231.506836 
z"/>
</svg>