<svg version="1.1" id="Layer_1" xmlns="http://www.w3.org/2000/svg" xmlns:xlink="http://www.w3.org/1999/xlink" x="0px" y="0px"
	 width="100%" viewBox="0 0 1051 1025" enable-background="new 0 0 1051 1025" xml:space="preserve">
<path fill="#001E36" opacity="1.000000" stroke="none" 
	d="
M1.000004,867.000000 
	C1.000000,631.638611 1.000000,396.277252 1.336001,160.307098 
	C2.642206,155.733719 3.667064,151.781616 4.574086,147.802658 
	C12.830827,111.581383 29.655693,80.191895 56.341454,54.054260 
	C83.512978,27.440842 115.647400,10.737673 152.944305,3.699807 
	C155.379318,3.240322 157.651871,1.919934 160.000000,1.000001 
	C404.028046,1.000000 648.056091,1.000000 892.692993,1.336002 
	C897.267395,2.633979 901.223022,3.639393 905.200073,4.551158 
	C941.401367,12.850468 972.805786,29.650229 998.944214,56.337509 
	C1025.559448,83.511482 1042.256348,115.649117 1049.300781,152.944244 
	C1049.760742,155.379227 1051.080200,157.651855 1052.000000,160.000000 
	C1052.000000,395.361359 1052.000000,630.722717 1051.664062,866.692993 
	C1050.840088,868.655396 1050.139526,869.971680 1049.895264,871.367859 
	C1043.883057,905.734497 1029.738281,936.404724 1006.701233,962.528931 
	C978.321045,994.712341 942.985718,1015.296997 900.547852,1023.219727 
	C897.949402,1023.704895 895.512207,1025.053223 893.000000,1026.000000 
	C648.971985,1026.000000 404.943939,1026.000000 160.307007,1025.664062 
	C158.509735,1024.860352 157.349106,1024.298218 156.128738,1023.939148 
	C141.499496,1019.634399 126.348755,1016.601135 112.334633,1010.813416 
	C85.036804,999.539551 62.215382,981.667175 43.334026,958.868896 
	C22.763336,934.030762 9.510685,905.798889 3.697152,874.055054 
	C3.251270,871.620361 1.919833,869.347900 1.000004,867.000000 
M237.450821,715.250854 
	C237.486481,725.252319 237.799057,725.566223 247.901794,725.567566 
	C272.734009,725.570801 297.566254,725.571899 322.398468,725.566772 
	C331.633575,725.564880 332.512238,724.696289 332.512085,715.690796 
	C332.511322,672.359375 332.511444,629.028015 332.511261,585.696594 
	C332.511230,583.591125 332.511230,581.485596 332.511230,579.122253 
	C334.789459,579.021790 336.422058,578.855835 338.049988,578.893127 
	C348.876282,579.141418 359.701782,579.674927 370.527161,579.664917 
	C401.612335,579.636047 432.458527,577.388489 462.330933,567.932495 
	C502.948669,555.074951 534.466675,530.873108 553.345520,492.175598 
	C567.929932,462.280701 571.068298,430.204041 567.055725,397.547028 
	C560.677856,345.639221 534.311707,307.179626 487.427948,283.506714 
	C456.469147,267.874725 423.070251,261.927979 388.747650,262.026581 
	C341.761475,262.161530 294.778595,263.384827 247.794006,264.122894 
	C237.454056,264.285309 237.451080,264.248993 237.451050,274.828003 
	C237.450546,421.321472 237.450745,567.814941 237.450821,715.250854 
M846.961792,384.417816 
	C844.782349,383.596954 842.638367,382.661652 840.418152,381.972229 
	C799.257874,369.191437 757.295105,367.321686 714.935730,373.650452 
	C688.959106,377.531555 666.009583,388.352051 646.784302,406.599945 
	C611.432861,440.154022 603.414490,503.111450 640.412720,543.584900 
	C654.658508,559.168762 672.108276,570.058167 690.810303,578.915039 
	C707.926208,587.020752 725.841675,593.422974 743.110229,601.227783 
	C751.379578,604.965271 759.760498,609.250061 766.696045,614.976440 
	C780.492859,626.367737 777.333984,644.039490 760.423157,649.828186 
	C751.448669,652.900269 741.593201,654.508606 732.088196,654.727478 
	C693.363647,655.619263 656.804504,646.882690 622.840210,627.950500 
	C617.380066,624.906799 615.377563,626.014771 615.359802,632.394165 
	C615.291382,656.891907 615.362915,681.390137 615.294495,705.887878 
	C615.281189,710.649719 617.344849,713.839966 621.654968,715.612854 
	C626.883728,717.763550 632.036133,720.185852 637.415894,721.870239 
	C678.952271,734.875366 721.353394,737.958069 764.322571,731.636047 
	C787.613708,728.209290 809.398560,720.493652 828.823059,706.521423 
	C881.273499,668.793335 889.195129,577.831299 821.080688,539.599854 
	C807.317322,531.874634 793.183655,524.731934 778.856201,518.109436 
	C762.567139,510.580383 745.720581,504.257599 729.428406,496.734833 
	C723.664124,494.073181 718.172058,490.065887 713.680420,485.553436 
	C702.550110,474.371460 706.949829,457.335388 722.022034,452.547119 
	C727.684326,450.748260 733.699646,449.383331 739.607361,449.145416 
	C774.546570,447.738220 808.315979,452.870026 840.071960,468.343323 
	C841.402161,468.991486 842.825806,469.633514 844.267639,469.833801 
	C849.421082,470.549591 851.885986,468.490662 851.899048,463.277527 
	C851.956848,440.279633 851.951416,417.281372 851.889526,394.283508 
	C851.879517,390.573578 851.437378,386.878448 846.961792,384.417816 
z"/>
<path fill="#000000" opacity="1.000000" stroke="none" 
	d="
M1.000004,867.468628 
	C1.919833,869.347900 3.251270,871.620361 3.697152,874.055054 
	C9.510685,905.798889 22.763336,934.030762 43.334026,958.868896 
	C62.215382,981.667175 85.036804,999.539551 112.334633,1010.813416 
	C126.348755,1016.601135 141.499496,1019.634399 156.128738,1023.939148 
	C157.349106,1024.298218 158.509735,1024.860352 159.849060,1025.664062 
	C107.073006,1026.000000 54.146004,1026.000000 1.000000,1026.000000 
	C1.000000,973.312622 1.000000,920.625000 1.000004,867.468628 
z"/>
<path fill="#000000" opacity="1.000000" stroke="none" 
	d="
M893.468628,1026.000000 
	C895.512207,1025.053223 897.949402,1023.704895 900.547852,1023.219727 
	C942.985718,1015.296997 978.321045,994.712341 1006.701233,962.528931 
	C1029.738281,936.404724 1043.883057,905.734497 1049.895264,871.367859 
	C1050.139526,869.971680 1050.840088,868.655396 1051.664062,867.150940 
	C1052.000000,919.927002 1052.000000,972.854004 1052.000000,1026.000000 
	C999.312622,1026.000000 946.625000,1026.000000 893.468628,1026.000000 
z"/>
<path fill="#000000" opacity="1.000000" stroke="none" 
	d="
M159.531342,1.000001 
	C157.651871,1.919934 155.379318,3.240322 152.944305,3.699807 
	C115.647400,10.737673 83.512978,27.440842 56.341454,54.054260 
	C29.655693,80.191895 12.830827,111.581383 4.574086,147.802658 
	C3.667064,151.781616 2.642206,155.733719 1.336001,159.849152 
	C1.000000,107.072990 1.000000,54.145981 1.000000,1.000000 
	C53.687359,1.000000 106.375023,1.000000 159.531342,1.000001 
z"/>
<path fill="#000000" opacity="1.000000" stroke="none" 
	d="
M1052.000000,159.531342 
	C1051.080200,157.651855 1049.760742,155.379227 1049.300781,152.944244 
	C1042.256348,115.649117 1025.559448,83.511482 998.944214,56.337509 
	C972.805786,29.650229 941.401367,12.850468 905.200073,4.551158 
	C901.223022,3.639393 897.267395,2.633979 893.150879,1.336002 
	C945.927002,1.000000 998.854004,1.000000 1052.000000,1.000000 
	C1052.000000,53.687359 1052.000000,106.375023 1052.000000,159.531342 
z"/>
<path fill="#31A7FE" opacity="1.000000" stroke="none" 
	d="
M237.450806,714.779663 
	C237.450745,567.814941 237.450546,421.321472 237.451050,274.828003 
	C237.451080,264.248993 237.454056,264.285309 247.794006,264.122894 
	C294.778595,263.384827 341.761475,262.161530 388.747650,262.026581 
	C423.070251,261.927979 456.469147,267.874725 487.427948,283.506714 
	C534.311707,307.179626 560.677856,345.639221 567.055725,397.547028 
	C571.068298,430.204041 567.929932,462.280701 553.345520,492.175598 
	C534.466675,530.873108 502.948669,555.074951 462.330933,567.932495 
	C432.458527,577.388489 401.612335,579.636047 370.527161,579.664917 
	C359.701782,579.674927 348.876282,579.141418 338.049988,578.893127 
	C336.422058,578.855835 334.789459,579.021790 332.511230,579.122253 
	C332.511230,581.485596 332.511230,583.591125 332.511261,585.696594 
	C332.511444,629.028015 332.511322,672.359375 332.512085,715.690796 
	C332.512238,724.696289 331.633575,725.564880 322.398468,725.566772 
	C297.566254,725.571899 272.734009,725.570801 247.901794,725.567566 
	C237.799057,725.566223 237.486481,725.252319 237.450806,714.779663 
M468.150696,392.446747 
	C459.957794,371.022614 443.483673,359.227539 422.211761,353.131042 
	C393.267731,344.835754 363.714508,348.383392 334.327576,348.803497 
	C334.027283,348.807770 333.730316,349.046234 333.332458,349.218353 
	C333.332458,398.052399 333.332458,446.924469 333.332458,496.350067 
	C350.821442,496.350067 368.038239,497.416229 385.052368,496.017365 
	C399.010010,494.869781 413.113495,491.999237 426.460083,487.728882 
	C446.827667,481.212067 462.762817,468.512207 469.282043,447.133789 
	C474.744324,429.221405 474.950348,411.060394 468.150696,392.446747 
z"/>
<path fill="#31A7FE" opacity="1.000000" stroke="none" 
	d="
M847.293152,384.605072 
	C851.437378,386.878448 851.879517,390.573578 851.889526,394.283508 
	C851.951416,417.281372 851.956848,440.279633 851.899048,463.277527 
	C851.885986,468.490662 849.421082,470.549591 844.267639,469.833801 
	C842.825806,469.633514 841.402161,468.991486 840.071960,468.343323 
	C808.315979,452.870026 774.546570,447.738220 739.607361,449.145416 
	C733.699646,449.383331 727.684326,450.748260 722.022034,452.547119 
	C706.949829,457.335388 702.550110,474.371460 713.680420,485.553436 
	C718.172058,490.065887 723.664124,494.073181 729.428406,496.734833 
	C745.720581,504.257599 762.567139,510.580383 778.856201,518.109436 
	C793.183655,524.731934 807.317322,531.874634 821.080688,539.599854 
	C889.195129,577.831299 881.273499,668.793335 828.823059,706.521423 
	C809.398560,720.493652 787.613708,728.209290 764.322571,731.636047 
	C721.353394,737.958069 678.952271,734.875366 637.415894,721.870239 
	C632.036133,720.185852 626.883728,717.763550 621.654968,715.612854 
	C617.344849,713.839966 615.281189,710.649719 615.294495,705.887878 
	C615.362915,681.390137 615.291382,656.891907 615.359802,632.394165 
	C615.377563,626.014771 617.380066,624.906799 622.840210,627.950500 
	C656.804504,646.882690 693.363647,655.619263 732.088196,654.727478 
	C741.593201,654.508606 751.448669,652.900269 760.423157,649.828186 
	C777.333984,644.039490 780.492859,626.367737 766.696045,614.976440 
	C759.760498,609.250061 751.379578,604.965271 743.110229,601.227783 
	C725.841675,593.422974 707.926208,587.020752 690.810303,578.915039 
	C672.108276,570.058167 654.658508,559.168762 640.412720,543.584900 
	C603.414490,503.111450 611.432861,440.154022 646.784302,406.599945 
	C666.009583,388.352051 688.959106,377.531555 714.935730,373.650452 
	C757.295105,367.321686 799.257874,369.191437 840.418152,381.972229 
	C842.638367,382.661652 844.782349,383.596954 847.293152,384.605072 
z"/>
<path fill="#001E37" opacity="1.000000" stroke="none" 
	d="
M468.298096,392.808258 
	C474.950348,411.060394 474.744324,429.221405 469.282043,447.133789 
	C462.762817,468.512207 446.827667,481.212067 426.460083,487.728882 
	C413.113495,491.999237 399.010010,494.869781 385.052368,496.017365 
	C368.038239,497.416229 350.821442,496.350067 333.332458,496.350067 
	C333.332458,446.924469 333.332458,398.052399 333.332458,349.218353 
	C333.730316,349.046234 334.027283,348.807770 334.327576,348.803497 
	C363.714508,348.383392 393.267731,344.835754 422.211761,353.131042 
	C443.483673,359.227539 459.957794,371.022614 468.298096,392.808258 
z"/>
</svg>